<svg data-2cq="true" aria-hidden="true" viewBox="0 0 20 20" class="" xmlns="http://www.w3.org/2000/svg"><path fill="currentColor" fill-rule="evenodd" d="M4 2.75A.75.75 0 0 1 4.75 2h6.343a3.908 3.908 0 0 1 3.88 3.449A2.21 2.21 0 0 1 15 5.84l.001.067a3.901 3.901 0 0 1-1.551 3.118A4.627 4.627 0 0 1 11.875 18H4.75a.75.75 0 0 1-.75-.75V9.5a.75.75 0 0 1 .032-.218A.75.75 0 0 1 4 9.065V2.75Zm2.5 5.565h3.593a2.157 2.157 0 1 0 0-4.315H6.5v4.315Zm4.25 1.935H6.5v5.5h4.25a2.75 2.75 0 1 0 0-5.5Z" clip-rule="evenodd"></path></svg>
