<svg data-2cq="true" aria-hidden="true" viewBox="0 0 20 20" class="" xmlns="http://www.w3.org/2000/svg"><path fill="currentColor" fill-rule="evenodd" d="M12.48 2.926a.75.75 0 0 0-1.46-.352l-3.5 14.5a.75.75 0 0 0 1.46.352l3.5-14.5ZM5.763 5.204a.75.75 0 0 0-1.06.032l-4 4.25a.75.75 0 0 0 0 1.028l4 4.25a.75.75 0 0 0 1.092-1.028L2.28 10l3.516-3.736a.75.75 0 0 0-.032-1.06Zm8.472 0a.75.75 0 0 1 1.06.032l4 4.25a.75.75 0 0 1 0 1.028l-4 4.25a.75.75 0 0 1-1.092-1.028L17.72 10l-3.516-3.736a.75.75 0 0 1 .032-1.06Z" clip-rule="evenodd"></path></svg>
