<?xml version="1.0" encoding="UTF-8"?>
<!DOCTYPE svg PUBLIC "-//W3C//DTD SVG 1.1//EN" "http://www.w3.org/Graphics/SVG/1.1/DTD/svg11.dtd">
<svg version="1.2" width="93.13mm" height="77.52mm" viewBox="0 0 9313 7752" preserveAspectRatio="xMidYMid" fill-rule="evenodd" stroke-width="28.222" stroke-linejoin="round" xmlns="http://www.w3.org/2000/svg" xmlns:ooo="http://xml.openoffice.org/svg/export" xmlns:xlink="http://www.w3.org/1999/xlink" xmlns:presentation="http://sun.com/xmlns/staroffice/presentation" xmlns:smil="http://www.w3.org/2001/SMIL20/" xmlns:anim="urn:oasis:names:tc:opendocument:xmlns:animation:1.0" xml:space="preserve">
 <defs class="ClipPathGroup">
  <clipPath id="presentation_clip_path" clipPathUnits="userSpaceOnUse">
   <rect x="0" y="0" width="9313" height="7752"/>
  </clipPath>
  <clipPath id="presentation_clip_path_shrink" clipPathUnits="userSpaceOnUse">
   <rect x="9" y="7" width="9295" height="7737"/>
  </clipPath>
 </defs>
 <defs class="TextShapeIndex">
  <g ooo:slide="id1" ooo:id-list="id3"/>
 </defs>
 <defs class="EmbeddedBulletChars">
  <g id="bullet-char-template-57356" transform="scale(0.00048828125,-0.00048828125)">
   <path d="M 580,1141 L 1163,571 580,0 -4,571 580,1141 Z"/>
  </g>
  <g id="bullet-char-template-57354" transform="scale(0.00048828125,-0.00048828125)">
   <path d="M 8,1128 L 1137,1128 1137,0 8,0 8,1128 Z"/>
  </g>
  <g id="bullet-char-template-10146" transform="scale(0.00048828125,-0.00048828125)">
   <path d="M 174,0 L 602,739 174,1481 1456,739 174,0 Z M 1358,739 L 309,1346 659,739 1358,739 Z"/>
  </g>
  <g id="bullet-char-template-10132" transform="scale(0.00048828125,-0.00048828125)">
   <path d="M 2015,739 L 1276,0 717,0 1260,543 174,543 174,936 1260,936 717,1481 1274,1481 2015,739 Z"/>
  </g>
  <g id="bullet-char-template-10007" transform="scale(0.00048828125,-0.00048828125)">
   <path d="M 0,-2 C -7,14 -16,27 -25,37 L 356,567 C 262,823 215,952 215,954 215,979 228,992 255,992 264,992 276,990 289,987 310,991 331,999 354,1012 L 381,999 492,748 772,1049 836,1024 860,1049 C 881,1039 901,1025 922,1006 886,937 835,863 770,784 769,783 710,716 594,584 L 774,223 C 774,196 753,168 711,139 L 727,119 C 717,90 699,76 672,76 641,76 570,178 457,381 L 164,-76 C 142,-110 111,-127 72,-127 30,-127 9,-110 8,-76 1,-67 -2,-52 -2,-32 -2,-23 -1,-13 0,-2 Z"/>
  </g>
  <g id="bullet-char-template-10004" transform="scale(0.00048828125,-0.00048828125)">
   <path d="M 285,-33 C 182,-33 111,30 74,156 52,228 41,333 41,471 41,549 55,616 82,672 116,743 169,778 240,778 293,778 328,747 346,684 L 369,508 C 377,444 397,411 428,410 L 1163,1116 C 1174,1127 1196,1133 1229,1133 1271,1133 1292,1118 1292,1087 L 1292,965 C 1292,929 1282,901 1262,881 L 442,47 C 390,-6 338,-33 285,-33 Z"/>
  </g>
  <g id="bullet-char-template-9679" transform="scale(0.00048828125,-0.00048828125)">
   <path d="M 813,0 C 632,0 489,54 383,161 276,268 223,411 223,592 223,773 276,916 383,1023 489,1130 632,1184 813,1184 992,1184 1136,1130 1245,1023 1353,916 1407,772 1407,592 1407,412 1353,268 1245,161 1136,54 992,0 813,0 Z"/>
  </g>
  <g id="bullet-char-template-8226" transform="scale(0.00048828125,-0.00048828125)">
   <path d="M 346,457 C 273,457 209,483 155,535 101,586 74,649 74,723 74,796 101,859 155,911 209,963 273,989 346,989 419,989 480,963 531,910 582,859 608,796 608,723 608,648 583,586 532,535 482,483 420,457 346,457 Z"/>
  </g>
  <g id="bullet-char-template-8211" transform="scale(0.00048828125,-0.00048828125)">
   <path d="M -4,459 L 1135,459 1135,606 -4,606 -4,459 Z"/>
  </g>
  <g id="bullet-char-template-61548" transform="scale(0.00048828125,-0.00048828125)">
   <path d="M 173,740 C 173,903 231,1043 346,1159 462,1274 601,1332 765,1332 928,1332 1067,1274 1183,1159 1299,1043 1357,903 1357,740 1357,577 1299,437 1183,322 1067,206 928,148 765,148 601,148 462,206 346,322 231,437 173,577 173,740 Z"/>
  </g>
 </defs>
 <defs class="TextEmbeddedBitmaps"/>
 <g>
  <g id="id2" class="Master_Slide">
   <g id="bg-id2" class="Background"/>
   <g id="bo-id2" class="BackgroundObjects"/>
  </g>
 </g>
 <g class="SlideGroup">
  <g>
   <g id="container-id1">
    <g id="id1" class="Slide" clip-path="url(#presentation_clip_path)">
     <g class="Page">
      <g class="Graphic">
       <title>Three coworkers work together, sharing files, and sending messages back and forth.
       </title>
       <g id="id3">
        <rect class="BoundingBox" stroke="none" fill="none" x="0" y="0" width="9313" height="7752"/>
        <path fill="rgb(74,21,75)" stroke="none" d="M 4231,4239 L 572,4239 C 464,4239 376,4326 376,4435 L 376,7408 C 376,7516 464,7604 572,7604 L 4231,7604 C 4339,7604 4426,7516 4426,7408 L 4426,4435 C 4426,4326 4339,4239 4231,4239 L 4231,4239 Z"/>
        <path fill="rgb(0,0,0)" stroke="none" d="M 913,6082 C 924,6097 935,6111 948,6123 966,6141 987,6156 1009,6167 1048,6125 1096,6091 1150,6069 L 1152,6067 C 1163,6047 1199,6025 1244,6003 1350,6155 1608,6149 1694,5970 1693,5971 1692,5973 1692,5974 1781,6032 1865,6097 1942,6169 L 2470,6178 C 2431,6084 2332,5958 2332,5958 2329,5941 2328,5925 2328,5908 2399,5901 2471,5913 2536,5944 L 2819,6080 C 2848,6012 2833,5937 2810,5869 2733,5645 2927,5574 2824,5415 2730,5270 2981,5064 2828,4915 2824,4911 2820,4907 2817,4903 2841,4872 2858,4836 2866,4798 2874,4760 2872,4720 2861,4682 2850,4645 2830,4610 2803,4582 2776,4554 2742,4533 2705,4520 2686,4472 2659,4428 2625,4389 2522,4272 2363,4266 2242,4285 2188,4231 2091,4140 1922,4165 1661,4204 1844,4408 1452,4477 1122,4535 1281,4890 1174,4915 1055,4943 979,5149 1046,5247 1009,5284 985,5332 978,5385 971,5437 981,5490 1007,5536 983,5561 965,5593 957,5627 948,5662 949,5698 959,5732 910,5774 879,5832 870,5896 861,5959 875,6024 910,6077 L 913,6082 913,6082 Z"/>
        <defs>
         <mask id="mask1">
          <g>
           <defs>
            <linearGradient id="gradient1" x1="2583" y1="4886" x2="2583" y2="4887" gradientUnits="userSpaceOnUse">
             <stop offset="0.5" style="stop-color:rgb(179,179,179)"/>
             <stop offset="0.5" style="stop-color:rgb(179,179,179)"/>
             <stop offset="1" style="stop-color:rgb(179,179,179)"/>
             <stop offset="1" style="stop-color:rgb(179,179,179)"/>
            </linearGradient>
           </defs>
           <path style="fill:url(#gradient1)" d="M 2583,4886 L 2583,4886 2583,4887 2583,4887 2583,4886 Z"/>
          </g>
         </mask>
        </defs>
        <g style="mask:url(#mask1)">
         <defs>
          <mask id="mask2">
           <g>
            <defs>
             <linearGradient id="gradient2" x1="2583" y1="4886" x2="2583" y2="4887" gradientUnits="userSpaceOnUse">
              <stop offset="0.5" style="stop-color:rgb(179,179,179)"/>
              <stop offset="0.5" style="stop-color:rgb(179,179,179)"/>
              <stop offset="1" style="stop-color:rgb(179,179,179)"/>
              <stop offset="1" style="stop-color:rgb(179,179,179)"/>
             </linearGradient>
            </defs>
            <path style="fill:url(#gradient2)" d="M 2583,4886 L 2583,4886 2583,4887 2583,4887 2583,4886 Z"/>
           </g>
          </mask>
         </defs>
         <g style="mask:url(#mask2)">
          <path fill="rgb(168,120,88)" fill-opacity="0.298" stroke="rgb(255,255,255)" stroke-opacity="0.298" d="M 2583,4887 L 2583,4886 C 2583,4886 2583,4887 2583,4887 L 2583,4887 Z"/>
         </g>
        </g>
        <path fill="rgb(199,108,97)" stroke="none" d="M 910,7040 C 896,7261 883,7487 878,7604 878,7604 1004,7605 1019,7606 L 1431,7606 C 1431,7606 1482,7358 1531,7094 L 910,7040 910,7040 Z"/>
        <path fill="rgb(199,108,97)" stroke="none" d="M 5062,4997 C 5058,4996 5053,4995 5049,4996 5044,4997 5040,4999 5037,5003 L 4845,5196 C 4841,5187 4836,5178 4831,5169 L 4869,5112 C 4869,5112 4944,5001 5014,4914 5027,4898 5038,4880 5043,4861 5054,4816 5013,4803 4997,4805 4976,4808 4934,4877 4902,4910 4880,4933 4809,5028 4767,5081 4761,5076 4756,5071 4751,5066 L 4849,4925 4937,4801 C 4974,4759 4978,4734 4969,4721 4966,4716 4961,4712 4955,4710 4947,4706 4937,4705 4928,4706 4919,4706 4910,4710 4903,4715 4774,4801 4663,5005 4663,5005 L 4662,5007 4647,5000 4696,4903 4781,4774 C 4802,4744 4810,4723 4811,4709 4811,4703 4809,4697 4805,4692 4802,4687 4796,4683 4790,4682 4781,4679 4772,4678 4763,4680 4754,4682 4745,4686 4738,4692 4642,4771 4559,4925 4530,4982 4515,5000 4486,5034 4459,5065 4457,5067 4456,5068 4455,5069 4420,5104 4409,5132 4384,5135 4376,5135 4368,5134 4360,5131 4299,5076 4299,4835 4170,4884 4163,4888 4158,4895 4156,4902 4153,4909 4153,4917 4156,4924 4173,4975 4217,5112 4220,5210 4222,5293 4224,5391 4240,5441 4249,5467 4301,5558 4298,5586 L 4297,5589 3762,6570 C 3762,6570 3417,6427 3093,6273 L 2900,6675 C 2915,6741 2917,6810 2904,6876 3215,7003 3704,7181 3941,7156 4050,7144 4149,7002 4234,6811 4407,6423 4522,5831 4543,5714 4580,5655 4624,5606 4665,5556 4698,5532 4842,5362 4870,5309 4927,5258 5031,5160 5068,5092 5103,5027 5080,5005 5062,4997 L 5062,4997 Z"/>
        <path fill="rgb(199,108,97)" stroke="none" d="M 2580,5052 C 2576,5037 2573,5021 2573,5006 L 2570,4918 C 2570,4917 2570,4915 2570,4913 2557,4912 2544,4912 2532,4913 2507,4916 2452,4941 2417,4957 2416,4958 2415,4959 2413,4959 2412,4960 2411,4960 2409,4960 2408,4960 2406,4959 2405,4958 2404,4958 2403,4957 2402,4956 2401,4955 2400,4953 2400,4952 2399,4951 2399,4949 2399,4948 2399,4947 2400,4945 2401,4944 2401,4943 2402,4942 2403,4941 2437,4900 2498,4882 2536,4880 2546,4879 2556,4881 2566,4884 2566,4884 2566,4883 2566,4883 2565,4879 2564,4876 2563,4873 2561,4864 2558,4856 2554,4848 L 2542,4822 2499,4736 C 2180,4766 2036,4622 2031,4616 2048,4688 2086,4788 1946,4886 1699,5061 1895,5150 1678,5216 1663,5194 1641,5177 1615,5168 1589,5160 1561,5161 1536,5171 1511,5181 1490,5200 1476,5223 1463,5247 1458,5275 1463,5301 L 1463,5301 1466,5313 1482,5368 C 1489,5392 1501,5415 1516,5434 1532,5454 1551,5470 1573,5482 1595,5494 1619,5502 1644,5505 1669,5508 1694,5505 1718,5498 L 1747,5490 1754,5498 C 1782,5540 1792,5591 1783,5640 1774,5689 1747,5733 1706,5763 1718,5800 1723,5839 1719,5879 1716,5912 1706,5944 1692,5974 1810,6051 1919,6140 2017,6242 2322,6557 2524,6326 2478,6199 2477,6194 2475,6189 2473,6185 2435,6089 2332,5958 2332,5958 2324,5910 2327,5794 2330,5735 2345,5735 2360,5734 2375,5731 2409,5726 2442,5711 2468,5689 2495,5666 2514,5636 2524,5603 L 2564,5493 C 2574,5462 2581,5430 2586,5398 L 2598,5329 2603,5297 C 2614,5225 2610,5153 2589,5083 L 2580,5052 2580,5052 Z M 2261,4963 C 2239,4965 2217,4966 2194,4967 L 2152,4970 2131,4971 C 2124,4971 2118,4971 2111,4972 2085,4976 2062,4987 2043,5006 2021,5025 1998,5043 1973,5058 1988,5033 2006,5009 2025,4988 2046,4964 2073,4946 2104,4938 2119,4935 2134,4932 2149,4931 L 2191,4925 C 2211,4923 2231,4921 2251,4918 2254,4918 2258,4918 2261,4919 2264,4920 2267,4922 2270,4924 2272,4926 2275,4929 2276,4932 2278,4935 2279,4938 2279,4942 2279,4944 2279,4947 2278,4950 2277,4952 2276,4954 2274,4956 2273,4958 2271,4960 2268,4961 2266,4962 2263,4963 2261,4963 L 2261,4963 Z"/>
        <path fill="rgb(0,0,0)" stroke="none" d="M 2217,5425 L 2465,5392 C 2465,5392 2438,5432 2448,5461 2448,5461 2316,5509 2217,5425 L 2217,5425 Z"/>
        <path fill="rgb(237,28,36)" stroke="none" d="M 2453,5432 C 2453,5432 2474,5487 2447,5513 2426,5532 2361,5539 2312,5522 2264,5505 2217,5425 2217,5425 2217,5425 2277,5466 2323,5472 2382,5481 2428,5468 2440,5455 L 2445,5432 2453,5432 2453,5432 Z"/>
        <path fill="rgb(255,255,255)" stroke="none" d="M 2217,5425 C 2217,5425 2265,5447 2290,5447 2340,5448 2391,5444 2440,5437 2446,5436 2451,5433 2455,5429 2459,5425 2461,5419 2462,5414 L 2465,5392 2217,5425 2217,5425 Z"/>
        <path fill="rgb(237,28,36)" stroke="none" d="M 2477,5383 C 2477,5380 2476,5377 2474,5374 2473,5371 2471,5369 2468,5367 2465,5366 2462,5365 2459,5365 2456,5365 2453,5366 2450,5367 2427,5379 2401,5383 2376,5379 2346,5375 2332,5380 2216,5425 2216,5425 2402,5446 2465,5412 2469,5410 2474,5395 2474,5395 2475,5391 2476,5387 2477,5383 L 2477,5383 Z"/>
        <path fill="rgb(255,255,255)" stroke="none" d="M 1700,5956 C 1702,5951 1703,5947 1705,5943 1703,5947 1702,5951 1700,5956 L 1700,5956 Z"/>
        <path fill="rgb(149,81,73)" stroke="none" d="M 2302,5328 C 2302,5328 2284,5337 2281,5325 2279,5314 2321,5291 2341,5278 2360,5265 2371,5274 2403,5274 2434,5274 2441,5251 2458,5251 2474,5251 2460,5292 2444,5300 2429,5307 2429,5316 2409,5319 2361,5327 2361,5315 2302,5328 L 2302,5328 Z"/>
        <path fill="rgb(149,81,73)" stroke="none" d="M 2330,5734 C 2289,5735 2248,5728 2209,5713 L 1847,5566 C 1836,5562 1825,5557 1814,5551 1879,5678 2038,5921 2332,5957 2324,5909 2327,5793 2330,5734 L 2330,5734 Z"/>
        <path fill="rgb(149,81,73)" stroke="none" d="M 1520,5314 C 1486,5179 1615,5235 1615,5235 L 1540,5297 C 1571,5418 1675,5440 1675,5440 1558,5462 1520,5314 1520,5314 L 1520,5314 Z"/>
        <path fill="rgb(149,81,73)" stroke="none" d="M 909,7039 L 893,7267 C 1045,7397 1510,7203 1510,7203 L 1533,7094 909,7039 909,7039 Z"/>
        <path fill="rgb(149,81,73)" stroke="none" d="M 3762,6570 L 3780,6673 C 3780,6673 4036,6098 4163,5833 L 3762,6570 3762,6570 Z"/>
        <path fill="rgb(149,81,73)" stroke="none" d="M 4384,5135 C 4467,5193 4510,5303 4518,5356 4510,5303 4499,5250 4483,5198 4470,5153 4464,5107 4465,5061 4461,5064 4458,5066 4455,5069 4420,5104 4409,5132 4384,5135 Z"/>
        <path fill="rgb(149,81,73)" stroke="none" d="M 4229,6821 C 4198,6878 4162,6932 4119,6981 4072,7034 4011,7072 3943,7090 3875,7107 3803,7105 3736,7081 L 3018,6845 3085,6293 3082,6294 2900,6675 C 2915,6741 2917,6809 2904,6876 3215,7003 3704,7181 3941,7156 4050,7144 4149,7002 4234,6811 4232,6814 4230,6817 4229,6821 L 4229,6821 Z"/>
        <path fill="rgb(0,231,231)" stroke="none" d="M 3117,6222 L 2536,5944 C 2471,5913 2399,5901 2328,5909 2328,5925 2329,5942 2332,5958 2332,5958 2435,6089 2473,6185 2475,6190 2477,6195 2478,6199 2524,6326 2322,6557 2017,6242 1919,6141 1810,6051 1691,5974 1692,5973 1693,5971 1694,5970 1608,6149 1350,6155 1244,6003 1198,6024 1163,6047 1151,6067 L 1150,6069 C 1084,6096 1026,6140 984,6197 941,6255 915,6322 909,6394 L 852,7034 1027,7050 1531,7094 C 1482,7358 1430,7606 1430,7606 L 1410,7606 2834,7607 2800,7273 C 2791,7181 2811,7088 2856,7006 2857,7005 2858,7003 2859,7001 2912,6901 2926,6785 2899,6675 L 3117,6222 3117,6222 Z"/>
        <path fill="rgb(255,255,255)" stroke="none" d="M 2652,6369 C 2650,6354 2644,6340 2636,6328 2628,6315 2618,6305 2605,6297 2618,6284 2627,6269 2632,6253 2593,6203 2553,6154 2515,6111 2497,6090 2478,6069 2460,6050 L 2457,6047 C 2453,6043 2449,6039 2445,6035 L 2440,6031 2432,6023 2428,6020 C 2424,6017 2421,6015 2418,6012 L 2415,6010 C 2411,6007 2407,6004 2403,6001 L 2401,6000 C 2396,5997 2392,5994 2387,5991 2375,5984 2362,5977 2348,5971 2345,5969 2342,5968 2339,5967 2363,5998 2442,6104 2473,6184 2475,6189 2477,6194 2479,6199 2525,6326 2323,6556 2017,6241 1919,6140 1810,6051 1691,5974 1692,5972 1693,5970 1694,5968 1673,6014 1638,6052 1594,6077 1600,6093 1609,6108 1621,6121 1633,6133 1648,6142 1664,6148 1681,6153 1698,6155 1715,6152 1732,6150 1749,6143 1763,6133 1754,6151 1751,6171 1753,6191 1756,6211 1763,6229 1776,6245 1788,6261 1804,6273 1823,6280 1841,6288 1861,6290 1881,6286 1892,6284 1903,6281 1913,6276 1903,6294 1898,6314 1900,6335 1901,6355 1908,6375 1920,6392 1932,6409 1948,6422 1967,6429 1986,6437 2007,6440 2028,6436 2038,6434 2048,6431 2057,6426 2051,6440 2047,6454 2046,6469 2045,6484 2047,6499 2052,6513 2057,6527 2065,6540 2075,6551 2085,6561 2098,6570 2111,6576 2125,6582 2140,6585 2155,6585 2169,6585 2184,6582 2198,6576 2212,6571 2224,6562 2234,6551 2245,6540 2252,6528 2258,6514 2264,6541 2281,6565 2305,6581 2329,6596 2358,6601 2386,6596 2414,6590 2438,6574 2454,6550 2470,6527 2477,6498 2472,6470 2489,6485 2510,6494 2533,6496 2555,6499 2578,6494 2598,6483 2617,6472 2633,6455 2643,6434 2652,6414 2656,6391 2652,6369 L 2652,6369 Z"/>
        <path fill="rgb(0,173,173)" stroke="none" d="M 1431,7605 L 1842,7604 C 1842,7604 1657,7530 1697,6957 1704,6860 1684,6753 1660,6664 L 1621,7102 1531,7094 C 1483,7352 1433,7594 1431,7605 L 1431,7605 Z"/>
        <path fill="rgb(0,0,0)" stroke="none" d="M 2272,5050 C 2255,5036 2234,5029 2213,5029 2192,5028 2170,5032 2150,5039 2131,5046 2112,5056 2095,5067 2078,5078 2062,5092 2049,5108 2082,5095 2112,5081 2143,5069 2140,5076 2139,5083 2140,5091 2141,5099 2144,5106 2149,5112 2154,5117 2161,5122 2168,5124 2176,5126 2184,5126 2191,5123 2198,5121 2205,5117 2210,5111 2215,5105 2218,5098 2218,5090 2219,5082 2218,5075 2214,5068 2211,5061 2205,5055 2199,5051 2204,5050 2209,5049 2214,5048 2233,5045 2253,5046 2272,5050 L 2272,5050 Z"/>
        <path fill="rgb(0,0,0)" stroke="none" d="M 2528,5019 C 2534,5018 2541,5017 2548,5016 2561,5013 2575,5012 2589,5009 2576,5001 2562,4997 2547,4996 2532,4995 2517,4996 2502,5000 2488,5004 2474,5010 2461,5018 2449,5026 2438,5037 2430,5050 2445,5045 2457,5040 2470,5036 2475,5034 2479,5033 2483,5031 2479,5039 2477,5047 2478,5056 2478,5062 2481,5068 2485,5072 2488,5077 2493,5081 2499,5083 2504,5086 2510,5087 2516,5086 2522,5085 2528,5083 2533,5080 2538,5076 2542,5071 2545,5066 2547,5060 2548,5054 2548,5048 2547,5042 2545,5036 2542,5031 2538,5026 2534,5022 2528,5019 L 2528,5019 2528,5019 Z"/>
        <path fill="rgb(0,0,0)" stroke="none" d="M 2313,5320 C 2313,5320 2342,5287 2365,5291 2399,5296 2366,5315 2313,5320 L 2313,5320 Z"/>
        <path fill="rgb(0,0,0)" stroke="none" d="M 2417,5304 C 2417,5304 2434,5278 2447,5276 2460,5274 2448,5300 2417,5304 L 2417,5304 Z"/>
        <path fill="rgb(168,143,169)" stroke="none" d="M 4844,221 L 323,221 C 211,221 121,311 121,423 L 121,3299 C 121,3411 211,3501 323,3501 L 4844,3501 C 4956,3501 5046,3411 5046,3299 L 5046,423 C 5046,311 4956,221 4844,221 L 4844,221 Z"/>
        <path fill="rgb(74,21,75)" stroke="none" d="M 121,423 L 121,720 5046,720 5046,423 C 5046,369 5025,318 4987,280 4949,242 4898,221 4845,221 L 323,221 C 269,221 218,242 180,280 142,318 121,369 121,423 L 121,423 Z"/>
        <path fill="rgb(224,30,90)" stroke="none" d="M 519,586 C 575,586 620,541 620,485 620,429 575,384 519,384 464,384 418,429 418,485 418,541 464,586 519,586 L 519,586 Z"/>
        <path fill="rgb(236,178,46)" stroke="none" d="M 832,586 C 888,586 933,541 933,485 933,429 888,384 832,384 777,384 731,429 731,485 731,541 777,586 832,586 L 832,586 Z"/>
        <path fill="rgb(46,182,125)" stroke="none" d="M 1145,586 C 1201,586 1246,541 1246,485 1246,429 1201,384 1145,384 1089,384 1044,429 1044,485 1044,541 1089,586 1145,586 L 1145,586 Z"/>
        <path fill="rgb(255,161,0)" stroke="none" d="M 4355,3310 C 4351,3265 4343,3221 4333,3177 4327,3154 4322,3130 4315,3103 4261,2874 4172,2518 4113,2365 4045,2191 3959,2027 3810,1910 3755,1867 3694,1832 3630,1806 3629,1806 3628,1805 3626,1805 3608,1794 3590,1785 3573,1776 L 3563,1770 C 3506,1738 3465,1712 3437,1694 3409,1676 3396,1667 3395,1666 3395,1666 3303,1659 3182,1652 L 3174,1651 3150,1650 C 3112,1648 3071,1645 3031,1644 L 3010,1643 3005,1643 C 2868,1637 2728,1634 2648,1641 2608,1644 2567,1648 2529,1651 2503,1654 2478,1656 2454,1659 2337,1671 2248,1682 2248,1682 L 2247,1683 C 2235,1684 2222,1686 2211,1691 2041,1749 1716,2105 1469,2393 1439,2428 1410,2462 1383,2495 1316,2574 1259,2642 1217,2691 1217,2691 1375,2628 1818,2897 1739,3232 1685,3505 1685,3505 L 3905,3505 3884,3325 4355,3310 4355,3310 Z"/>
        <path fill="rgb(242,96,106)" stroke="none" d="M 2210,1690 C 2221,1685 2234,1683 2246,1682 L 2247,1681 C 2247,1681 2336,1671 2453,1658 2477,1655 2502,1653 2528,1650 2566,1647 2607,1643 2647,1640 2728,1633 2867,1636 3004,1642 L 3009,1642 3030,1643 C 3071,1644 3111,1646 3149,1649 L 3173,1650 3181,1650 C 3303,1658 3394,1664 3394,1664 3396,1666 3410,1676 3436,1693 3463,1710 3505,1736 3562,1768 L 3573,1775 C 3589,1784 3606,1794 3626,1804 3627,1804 3628,1805 3629,1805 3668,1821 3705,1839 3741,1861 3774,1858 3882,1827 3911,1580 3947,1261 4026,804 4036,684 4044,584 3973,506 3973,506 3973,506 3885,312 3830,256 3746,173 3324,-69 2889,291 2701,448 2054,1517 1981,1848 2070,1769 2150,1710 2210,1690 L 2210,1690 Z"/>
        <path fill="rgb(177,177,177)" stroke="none" d="M 2170,3371 L 3393,3417 3853,2517 C 3878,2451 3811,2409 3713,2406 L 2729,2338 C 2689,2335 2652,2353 2637,2385 L 2579,2506 2567,2531 2541,2587 2170,3371 2170,3371 Z"/>
        <path fill="rgb(105,105,105)" stroke="none" d="M 2541,2587 C 2555,2607 2580,2629 2628,2639 L 2633,2614 C 2580,2603 2561,2575 2554,2559 L 2541,2587 2541,2587 Z"/>
        <path fill="rgb(105,105,105)" stroke="none" d="M 2567,2531 C 2588,2555 2617,2570 2648,2575 L 2653,2550 C 2610,2541 2589,2521 2579,2506 L 2567,2531 2567,2531 Z"/>
        <path fill="rgb(230,230,230)" stroke="none" d="M 3455,3442 L 2232,3396 2699,2410 C 2714,2378 2751,2360 2791,2363 L 3775,2431 C 3829,2435 3866,2492 3845,2541 L 3455,3442 3455,3442 Z"/>
        <path fill="rgb(70,65,69)" stroke="none" d="M 3728,2625 C 3736,2606 3730,2585 3713,2577 3696,2570 3675,2579 3667,2598 3658,2617 3665,2638 3682,2646 3698,2653 3719,2644 3728,2625 L 3728,2625 Z"/>
        <path fill="rgb(29,28,29)" stroke="none" d="M 3710,2617 C 3714,2609 3711,2600 3704,2597 3697,2594 3688,2597 3684,2606 3680,2614 3683,2623 3690,2626 3698,2629 3707,2626 3710,2617 L 3710,2617 Z"/>
        <path fill="rgb(29,28,29)" stroke="none" d="M 1216,2690 C 1348,2822 1512,2917 1692,2966 L 1810,2782 C 1810,2782 1500,2473 1216,2690 L 1216,2690 Z"/>
        <path fill="rgb(230,158,108)" stroke="none" d="M 3798,864 C 3795,863 3793,861 3791,859 3789,857 3788,854 3787,851 3786,846 3812,819 3825,825 3843,835 3923,880 3926,881 L 3931,629 3763,738 3606,707 3763,568 C 3672,593 3578,652 3488,713 L 3498,714 C 3513,716 3528,719 3543,723 L 3587,734 C 3607,739 3627,744 3647,749 3650,750 3653,751 3656,754 3659,756 3661,758 3663,761 3665,765 3666,768 3666,771 3667,775 3666,778 3665,782 3665,784 3664,787 3662,789 3660,791 3658,793 3656,794 3653,795 3651,796 3648,797 3646,797 3643,797 3640,796 3618,789 3597,783 3575,776 L 3532,762 3511,755 C 3505,753 3498,751 3492,749 3473,745 3453,745 3434,750 3271,863 3126,967 3046,876 L 3048,861 3048,861 C 3049,831 3039,802 3019,779 3000,756 2973,741 2943,737 2913,733 2883,740 2858,757 2833,774 2816,800 2808,829 L 2808,829 2797,906 C 2790,956 2804,1006 2834,1046 2865,1087 2910,1113 2960,1120 L 2980,1122 C 2958,1226 2927,1328 2889,1426 2848,1526 2845,1608 2739,1631 2739,1631 2840,1840 2957,1957 3106,2106 3242,2191 3401,2183 3610,2172 3587,1881 3445,1697 L 3445,1694 3445,1626 C 3490,1623 3531,1603 3562,1571 L 3636,1495 C 3659,1472 3681,1447 3700,1421 L 3761,1339 C 3765,1333 3769,1328 3772,1323 3809,1269 3835,1207 3847,1142 L 3853,1111 C 3857,1095 3862,1080 3869,1065 L 3907,987 C 3916,967 3922,945 3924,924 3923,923 3818,874 3798,864 L 3798,864 Z"/>
        <path fill="rgb(230,158,108)" stroke="none" d="M 4363,3505 L 4327,3272 3865,3306 3891,3505 4363,3505 4363,3505 Z"/>
        <path fill="rgb(230,158,108)" stroke="none" d="M 1135,3505 L 3833,3505 C 3833,3505 3550,3331 3465,3315 3462,3314 3458,3314 3455,3314 3415,3314 3273,3327 3162,3339 3069,3348 2975,3369 2888,3335 2888,3335 2380,3209 2011,3100 L 2087,2908 C 2087,2908 1951,2712 1760,2640 1668,2608 1573,2585 1476,2573 1476,2573 1389,2679 1350,2740 1347,2744 1345,2748 1343,2751 1258,2890 1112,3140 1095,3247 1079,3335 1093,3425 1135,3505 L 1135,3505 Z"/>
        <path fill="rgb(181,72,80)" stroke="none" d="M 3931,630 L 3926,881 3925,904 3925,916 C 3925,919 3925,921 3924,924 3922,945 3917,967 3907,987 L 3869,1065 C 3862,1080 3857,1095 3854,1110 L 3848,1142 C 3836,1207 3810,1268 3773,1323 3769,1328 3766,1333 3762,1338 L 3701,1421 C 3682,1447 3660,1472 3637,1495 L 3563,1571 C 3532,1603 3490,1622 3446,1626 L 3446,1694 3446,1696 C 3447,1697 3448,1699 3449,1700 3477,1717 3514,1740 3563,1768 L 3574,1774 C 3590,1784 3608,1793 3627,1804 3628,1804 3629,1804 3630,1805 3644,1810 3657,1816 3671,1822 3759,1759 3804,1624 3829,1487 3870,1253 3975,1024 3979,860 3982,719 3942,647 3931,630 L 3931,630 Z"/>
        <path fill="rgb(181,72,80)" stroke="none" d="M 2739,1630 C 2845,1607 2848,1525 2889,1426 2927,1327 2958,1226 2980,1122 L 2960,1120 C 2912,1113 2869,1089 2838,1051 2808,1014 2793,966 2796,918 2796,918 2673,1430 2279,1555 2118,1607 2038,1754 2009,1824 2087,1757 2156,1708 2210,1690 2222,1686 2234,1683 2246,1682 L 2247,1681 C 2247,1681 2336,1671 2453,1658 2477,1656 2502,1653 2528,1651 2567,1647 2607,1643 2647,1640 2673,1638 2706,1637 2743,1636 L 2739,1630 2739,1630 Z"/>
        <path fill="rgb(255,255,255)" stroke="none" d="M 1216,2690 C 1216,2690 1425,2607 2036,3042 L 2037,3041 2124,2896 2122,2892 C 2092,2852 1836,2519 1382,2494 1315,2573 1258,2641 1216,2690 L 1216,2690 Z"/>
        <path fill="rgb(173,119,81)" stroke="none" d="M 3370,1617 C 3316,1599 3266,1570 3223,1533 L 3161,1479 C 3109,1434 3068,1377 3042,1313 3033,1402 3033,1508 3066,1589 3133,1756 3447,1841 3447,1841 L 3447,1626 C 3421,1628 3395,1625 3370,1617 L 3370,1617 Z"/>
        <path fill="rgb(173,119,81)" stroke="none" d="M 2856,888 C 2864,749 2970,840 2970,840 L 2881,878 C 2875,1003 2968,1054 2968,1054 2849,1041 2856,888 2856,888 L 2856,888 Z"/>
        <path fill="rgb(173,119,81)" stroke="none" d="M 1380,2699 L 1353,2742 1350,2740 C 1347,2744 1345,2748 1343,2751 1258,2890 1112,3140 1095,3247 1079,3335 1093,3425 1135,3504 L 1273,3504 C 1236,3475 1185,3415 1170,3307 1151,3168 1322,2902 1387,2807 1617,2841 1838,2921 2036,3042 1717,2814 1507,2729 1380,2699 L 1380,2699 Z"/>
        <path fill="rgb(173,119,81)" stroke="none" d="M 2011,3100 L 1685,3061 2028,3067 2011,3100 2011,3100 Z"/>
        <path fill="rgb(242,96,106)" stroke="none" d="M 3811,525 L 3605,707 3762,738 3989,591 3811,525 3811,525 Z"/>
        <path fill="rgb(0,0,0)" stroke="none" d="M 2878,1425 C 2919,1425 2958,1412 2991,1387 3023,1362 3046,1327 3056,1287 3067,1248 3063,1206 3047,1168 3031,1131 3003,1099 2967,1080 2965,1079 2963,1078 2961,1079 2959,1080 2957,1081 2956,1083 2955,1084 2955,1085 2955,1086 2955,1087 2955,1088 2955,1089 2955,1090 2956,1091 2957,1092 2957,1093 2958,1094 2959,1094 2993,1113 3020,1144 3034,1181 3048,1218 3049,1258 3036,1295 3023,1332 2997,1364 2964,1384 2930,1404 2890,1412 2851,1406 2812,1400 2777,1380 2751,1350 2725,1321 2711,1283 2710,1243 2710,1204 2723,1166 2747,1135 2772,1105 2807,1084 2846,1076 2847,1076 2848,1076 2849,1075 2849,1074 2850,1074 2851,1073 2851,1072 2852,1071 2852,1070 2852,1069 2852,1068 2852,1067 2852,1065 2852,1064 2851,1063 2850,1063 2850,1062 2849,1061 2848,1061 2847,1060 2846,1060 2845,1060 2843,1060 2842,1060 2797,1069 2757,1094 2730,1130 2702,1167 2689,1213 2694,1258 2698,1304 2720,1346 2753,1377 2788,1408 2832,1425 2878,1425 L 2878,1425 2878,1425 Z"/>
        <path fill="rgb(0,0,0)" stroke="none" d="M 3645,1336 C 3645,1336 3618,1370 3617,1387 3616,1418 3552,1407 3502,1375 3453,1344 3405,1282 3405,1282 3405,1282 3426,1281 3487,1295 3549,1308 3645,1336 3645,1336 L 3645,1336 Z"/>
        <path fill="rgb(146,29,33)" stroke="none" d="M 3617,1387 C 3617,1387 3614,1443 3566,1439 3526,1436 3492,1431 3450,1369 3410,1309 3405,1282 3405,1282 3405,1282 3525,1376 3571,1387 3608,1395 3617,1387 3617,1387 L 3617,1387 Z"/>
        <path fill="rgb(255,255,255)" stroke="none" d="M 3405,1282 C 3405,1282 3523,1358 3596,1369 3602,1370 3608,1369 3614,1367 3619,1364 3624,1360 3628,1356 L 3640,1339 C 3640,1339 3519,1293 3405,1282 L 3405,1282 Z"/>
        <path fill="rgb(146,29,33)" stroke="none" d="M 3401,1281 C 3401,1281 3513,1270 3543,1274 3568,1278 3599,1283 3614,1294 3620,1298 3627,1301 3634,1301 3643,1301 3651,1302 3660,1305 3665,1306 3669,1325 3662,1333 3655,1341 3645,1347 3635,1349 3621,1349 3462,1303 3401,1281 L 3401,1281 Z"/>
        <path fill="rgb(173,119,81)" stroke="none" d="M 3543,1202 C 3543,1202 3522,1202 3525,1191 3528,1180 3576,1175 3599,1171 3621,1168 3628,1180 3657,1193 3686,1206 3701,1187 3717,1194 3732,1201 3702,1232 3685,1233 3668,1234 3664,1242 3645,1237 3597,1224 3602,1213 3543,1202 L 3543,1202 Z"/>
        <path fill="rgb(0,0,0)" stroke="none" d="M 3556,1198 C 3556,1198 3596,1180 3615,1192 3644,1211 3606,1215 3556,1198 L 3556,1198 Z"/>
        <path fill="rgb(0,0,0)" stroke="none" d="M 3657,1225 C 3657,1225 3684,1209 3696,1212 3709,1215 3688,1234 3657,1225 L 3657,1225 Z"/>
        <path fill="rgb(0,0,0)" stroke="none" d="M 3584,914 C 3570,903 3553,895 3536,890 3519,886 3502,884 3484,884 3467,884 3451,886 3434,891 3426,887 3418,884 3409,881 3401,878 3390,874 3380,871 3388,878 3396,884 3405,889 3413,895 3422,901 3430,907 3431,907 3432,907 3433,907 L 3435,907 C 3451,907 3467,907 3483,908 3490,908 3496,909 3502,910 3494,914 3487,921 3483,929 3478,937 3477,947 3478,956 3479,965 3483,973 3490,980 3496,987 3504,991 3513,993 3522,995 3532,994 3540,990 3549,987 3556,981 3560,973 3565,965 3567,956 3567,946 3566,937 3563,928 3557,921 3563,923 3569,926 3575,929 3582,932 3589,936 3595,940 3602,945 3608,951 3614,956 3611,948 3607,940 3602,933 3597,926 3591,919 3584,914 L 3584,914 Z"/>
        <path fill="rgb(0,0,0)" stroke="none" d="M 3882,1038 C 3882,1033 3880,1027 3878,1022 3874,1016 3870,1010 3864,1005 3853,995 3839,989 3824,988 3811,986 3797,987 3784,990 3771,993 3759,999 3748,1007 3761,1008 3774,1008 3786,1009 L 3799,1010 C 3791,1015 3786,1024 3784,1033 3783,1039 3783,1045 3784,1051 3785,1057 3788,1062 3792,1067 3796,1072 3801,1076 3806,1078 3812,1081 3818,1082 3824,1082 3830,1082 3836,1080 3841,1078 3847,1075 3852,1071 3855,1066 3859,1061 3861,1055 3863,1049 3864,1043 3863,1037 3862,1031 3862,1032 3862,1032 3863,1032 3867,1036 3870,1041 3874,1046 L 3875,1048 C 3876,1049 3876,1049 3877,1050 3878,1050 3879,1050 3880,1049 3888,1045 3896,1041 3904,1036 3896,1036 3889,1037 3882,1038 L 3882,1038 Z"/>
        <path fill="rgb(191,121,0)" stroke="none" d="M 2036,3042 L 2035,3041 2011,3100 C 2103,3128 2204,3156 2304,3183 2269,3114 2242,3043 2240,2985 2233,2800 2405,2431 2405,2431 2314,2562 2199,2757 2122,2892 2075,2973 2042,3032 2037,3041 L 2036,3042 2036,3042 Z"/>
        <path fill="rgb(191,121,0)" stroke="none" d="M 2309,1708 C 2326,1712 2342,1720 2356,1731 2359,1734 2362,1737 2366,1740 2369,1743 2372,1745 2375,1748 L 2384,1758 C 2386,1760 2387,1761 2389,1763 L 2393,1768 C 2398,1775 2403,1782 2408,1789 L 2415,1800 2418,1805 2421,1811 2433,1835 2443,1860 C 2446,1868 2449,1876 2451,1885 2453,1893 2456,1902 2458,1910 L 2464,1936 C 2466,1945 2468,1954 2469,1963 2472,1980 2475,1998 2477,2016 2479,2033 2480,2051 2483,2069 L 2488,2069 C 2488,2051 2488,2033 2487,2015 2487,2006 2486,1997 2485,1988 L 2483,1961 C 2482,1952 2480,1943 2478,1934 L 2473,1907 C 2471,1898 2469,1889 2466,1880 2464,1871 2461,1863 2458,1854 L 2448,1828 C 2444,1820 2440,1812 2436,1804 2427,1787 2416,1772 2404,1758 L 2399,1752 2394,1748 2384,1738 C 2380,1735 2377,1732 2373,1729 2369,1726 2366,1724 2362,1721 2346,1711 2328,1704 2309,1702 L 2309,1708 2309,1708 Z"/>
        <path fill="rgb(191,121,0)" stroke="none" d="M 4111,3181 C 4079,2930 4001,2428 3892,2272 3947,2477 3986,2703 3965,2811 3952,2873 3934,2934 3909,2992 3881,3065 3874,3176 3872,3194 3922,3191 4019,3186 4111,3181 Z M 3872,3194 C 3872,3194 3872,3194 3872,3194 3872,3197 3872,3197 3872,3194 Z"/>
        <path fill="rgb(255,255,255)" stroke="none" d="M 1216,2690 C 1216,2690 1425,2607 2036,3042 L 2037,3041 2124,2896 2122,2892 C 2092,2852 1836,2519 1382,2494 1315,2573 1258,2641 1216,2690 L 1216,2690 Z"/>
        <path fill="rgb(255,255,255)" stroke="none" d="M 3876,3263 L 3883,3327 4363,3327 4330,3172 C 4278,3172 3974,3189 3872,3194 3872,3217 3873,3240 3876,3263 L 3876,3263 Z"/>
        <path fill="rgb(255,255,255)" stroke="none" d="M 3563,1769 C 3514,1741 3476,1718 3449,1701 3587,1885 3608,2172 3401,2183 3241,2191 3105,2105 2957,1957 2843,1843 2745,1641 2740,1631 2697,1635 2655,1639 2655,1640 2630,1697 3080,2393 3468,2270 3723,2188 3625,1894 3573,1775 L 3563,1769 3563,1769 Z"/>
        <path fill="rgb(155,118,89)" stroke="none" d="M 5193,3845 C 5193,3845 5104,3898 5082,3999 5060,4100 5021,4143 5021,4143 5021,4143 5060,4043 5063,3975 5067,3907 5155,3808 5155,3808 L 5193,3845 5193,3845 Z"/>
        <path fill="rgb(74,21,75)" stroke="none" d="M 6404,6038 L 8876,6038 C 9028,6038 9151,5915 9151,5763 L 9151,1303 C 9151,1151 9028,1028 8876,1028 L 6404,1028 C 6252,1028 6129,1151 6129,1303 L 6129,5763 C 6129,5915 6252,6038 6404,6038 L 6404,6038 Z"/>
        <path fill="rgb(168,143,169)" stroke="none" d="M 8945,1525 L 6335,1525 C 6221,1525 6129,1617 6129,1731 L 6129,5301 C 6129,5415 6221,5507 6335,5507 L 8945,5507 C 9058,5507 9151,5415 9151,5301 L 9151,1731 C 9151,1617 9058,1525 8945,1525 L 8945,1525 Z"/>
        <path fill="rgb(0,0,0)" stroke="none" d="M 6746,5513 L 8945,5507 C 8999,5507 9052,5486 9091,5447 9129,5408 9151,5356 9151,5301 L 9151,2942 C 9057,2874 8588,2887 8379,2974 8069,3104 7748,4332 7416,4459 6888,4659 6746,5513 6746,5513 L 6746,5513 Z"/>
        <path fill="rgb(0,0,0)" stroke="none" d="M 8805,5322 C 8805,5322 8596,5337 8420,5298 8420,5298 8647,5178 8805,5156 L 8805,5322 8805,5322 Z"/>
        <path fill="rgb(206,157,119)" stroke="none" d="M 8537,2694 C 8537,2673 8531,2654 8522,2636 8512,2618 8499,2603 8482,2592 8465,2580 8446,2573 8426,2571 8406,2568 8386,2571 8367,2578 L 8350,2627 8291,2802 8232,2529 C 8226,2505 8217,2484 8202,2465 8188,2446 8170,2430 8150,2418 8073,2375 8012,2310 7975,2231 L 7958,2194 7514,2165 C 7498,2164 7483,2168 7470,2176 7457,2184 7447,2196 7441,2210 L 7381,2352 C 7379,2356 7377,2361 7376,2366 7374,2371 7372,2376 7371,2382 L 7383,2382 7405,2381 C 7412,2381 7418,2382 7424,2385 7430,2389 7435,2393 7439,2399 L 7453,2423 C 7455,2427 7456,2431 7456,2435 7456,2441 7454,2446 7450,2449 7446,2453 7441,2455 7436,2456 L 7370,2461 7365,2462 7366,2534 C 7366,2538 7366,2541 7366,2545 7366,2556 7364,2567 7362,2579 7362,2582 7361,2585 7360,2588 L 7351,2623 C 7343,2651 7339,2679 7336,2708 7331,2762 7334,2816 7344,2870 L 7368,2985 C 7375,3022 7385,3058 7398,3093 L 7438,3209 C 7453,3252 7467,3274 7485,3291 7513,3318 7549,3335 7588,3338 L 7664,3344 7669,3344 C 7670,3459 7671,3657 7659,3697 7644,3746 7640,3797 7647,3848 7654,3899 7673,3947 7700,3990 L 8395,3421 C 8395,3421 8383,3389 8341,3252 8318,3176 8321,3051 8328,2956 8378,2959 8427,2942 8465,2910 8502,2877 8526,2831 8530,2782 L 8536,2707 8537,2694 8537,2694 8537,2694 Z M 7947,2489 L 7883,2478 7692,2442 C 7682,2440 7673,2436 7666,2430 7659,2423 7653,2415 7650,2406 L 7640,2380 C 7639,2378 7639,2375 7640,2373 7640,2370 7641,2368 7643,2366 7644,2364 7647,2362 7649,2361 7652,2360 7654,2360 7657,2360 L 7886,2403 C 7911,2408 7934,2421 7951,2440 L 7966,2457 C 7969,2460 7970,2464 7971,2468 7971,2473 7970,2477 7968,2480 7966,2484 7963,2487 7959,2488 7955,2490 7951,2490 7947,2489 L 7947,2489 Z"/>
        <path fill="rgb(255,255,255)" stroke="none" d="M 8562,3551 C 8562,3551 8393,3421 8370,3343 8370,3343 8311,3433 7978,3619 7938,3641 7905,3673 7880,3711 7876,3717 7870,3725 7865,3734 7823,3796 7749,3907 7706,3969 L 7701,3977 7700,3979 C 7698,3981 7697,3982 7696,3984 7695,3983 7695,3982 7694,3980 7693,3979 7692,3978 7691,3976 7691,3976 7691,3975 7691,3975 L 7688,3971 C 7688,3970 7688,3969 7687,3969 L 7685,3965 7684,3962 7681,3958 7680,3955 C 7679,3953 7679,3952 7678,3950 L 7676,3946 C 7675,3945 7675,3943 7674,3941 L 7672,3937 C 7671,3935 7670,3933 7669,3932 7669,3930 7668,3929 7668,3927 7667,3926 7666,3924 7666,3922 L 7664,3917 C 7663,3915 7662,3913 7662,3911 7661,3909 7661,3907 7660,3906 7659,3904 7659,3902 7658,3900 7658,3898 7657,3896 7656,3893 7656,3891 7655,3890 7655,3888 7654,3887 7654,3883 7653,3881 L 7652,3876 C 7652,3874 7651,3871 7650,3869 L 7649,3863 7648,3855 7647,3849 C 7647,3847 7646,3844 7646,3841 7646,3838 7645,3837 7645,3835 L 7638,3819 C 7620,3779 7596,3725 7577,3673 7553,3608 7534,3547 7541,3521 7549,3490 7609,3454 7669,3425 7669,3419 7669,3412 7669,3405 7612,3427 7555,3448 7525,3461 7449,3494 7382,3812 7382,3812 L 7493,3705 7529,3755 C 7472,3875 7441,4050 7650,4058 7805,4064 7923,3976 7995,3899 L 8077,3971 8562,3551 8562,3551 Z"/>
        <path fill="rgb(204,204,204)" stroke="none" d="M 7658,3697 C 7668,3665 7669,3535 7669,3425 7610,3454 7549,3490 7542,3521 7529,3570 7607,3750 7646,3835 7641,3789 7645,3742 7658,3697 L 7658,3697 Z"/>
        <path fill="rgb(177,177,177)" stroke="none" d="M 7459,3669 L 7382,3811 7494,3704 7459,3669 7459,3669 Z"/>
        <path fill="rgb(204,204,204)" stroke="none" d="M 7921,3832 L 7725,3978 7722,3982 C 7818,3977 7944,3925 7998,3900 L 7921,3832 7921,3832 Z"/>
        <path fill="rgb(0,0,0)" stroke="none" d="M 8626,5206 C 8555,5233 8487,5263 8420,5298 8496,5314 8574,5322 8653,5324 L 8626,5206 8626,5206 Z"/>
        <path fill="rgb(0,0,0)" stroke="none" d="M 6339,4570 L 6328,4581 6328,4583 C 6331,4579 6335,4575 6339,4570 L 6339,4570 Z"/>
        <path fill="rgb(206,157,119)" stroke="none" d="M 7696,3984 C 7741,3919 7843,3768 7880,3711 7905,3673 7938,3641 7978,3619 8291,3444 8362,3354 8369,3343 8362,3320 8352,3290 8341,3251 8318,3176 8321,3051 8328,2955 8378,2958 8427,2942 8465,2910 8502,2877 8526,2831 8530,2781 L 8536,2706 8537,2694 8537,2694 C 8536,2673 8531,2654 8522,2636 8512,2618 8498,2603 8482,2592 8465,2580 8446,2573 8426,2571 8406,2568 8386,2571 8367,2578 L 8350,2627 8291,2802 8231,2529 C 8226,2506 8216,2484 8202,2465 8188,2446 8170,2430 8150,2418 8073,2375 8012,2310 7975,2231 L 7958,2194 7514,2165 C 7498,2164 7483,2168 7470,2176 7457,2184 7447,2196 7441,2210 L 7381,2352 C 7379,2356 7377,2361 7376,2366 7374,2371 7372,2376 7371,2382 L 7383,2382 7405,2381 C 7412,2381 7418,2382 7424,2385 7430,2389 7435,2393 7439,2399 L 7453,2423 C 7455,2427 7456,2431 7456,2435 7456,2441 7454,2446 7450,2449 7446,2453 7441,2455 7436,2456 L 7370,2461 7365,2462 7366,2534 C 7366,2538 7366,2541 7366,2545 7366,2556 7364,2567 7362,2579 7362,2582 7361,2585 7360,2588 L 7351,2623 C 7343,2651 7339,2679 7336,2708 7331,2762 7334,2816 7344,2870 L 7368,2985 C 7375,3022 7385,3058 7398,3093 L 7438,3209 C 7453,3252 7467,3274 7485,3291 7513,3318 7549,3335 7588,3338 L 7664,3344 7669,3344 C 7670,3459 7671,3657 7659,3697 7645,3745 7640,3795 7647,3844 7653,3894 7670,3941 7696,3984 L 7696,3984 Z M 7649,2406 L 7639,2380 C 7639,2378 7638,2375 7639,2373 7639,2370 7640,2368 7642,2366 7644,2364 7646,2362 7648,2361 7651,2360 7654,2360 7656,2360 L 7885,2403 C 7911,2408 7933,2421 7950,2440 L 7965,2457 C 7968,2460 7969,2464 7970,2468 7970,2472 7969,2476 7967,2480 7965,2483 7962,2486 7959,2488 7955,2489 7951,2490 7947,2489 L 7883,2477 7692,2442 C 7682,2440 7673,2436 7666,2430 7658,2423 7652,2415 7649,2406 L 7649,2406 Z"/>
        <path fill="rgb(0,0,0)" stroke="none" d="M 7950,2440 C 7933,2421 7911,2408 7885,2403 L 7656,2360 C 7653,2360 7651,2360 7648,2361 7646,2362 7644,2364 7642,2366 7640,2368 7639,2370 7639,2373 7638,2375 7639,2378 7639,2380 L 7649,2406 C 7652,2415 7658,2423 7665,2430 7673,2436 7682,2440 7691,2442 L 7882,2478 7946,2489 C 7950,2490 7954,2489 7958,2488 7961,2486 7964,2483 7966,2480 7968,2476 7969,2472 7969,2468 7969,2464 7967,2461 7964,2458 L 7950,2440 7950,2440 Z"/>
        <path fill="rgb(0,0,0)" stroke="none" d="M 8036,1811 C 7569,1755 7359,2045 7345,2390 7342,2461 7346,2532 7356,2602 L 7360,2587 C 7360,2584 7361,2581 7362,2578 7364,2567 7365,2556 7366,2544 7366,2541 7366,2537 7366,2534 L 7365,2462 7369,2460 7436,2455 C 7441,2455 7446,2453 7450,2449 7453,2445 7456,2440 7456,2435 7456,2431 7455,2427 7453,2423 L 7438,2399 C 7435,2393 7430,2388 7424,2385 7418,2382 7412,2380 7405,2381 L 7383,2382 7371,2382 C 7372,2376 7374,2371 7376,2365 7377,2360 7379,2356 7381,2351 L 7441,2210 C 7447,2196 7457,2184 7470,2176 7483,2168 7498,2164 7514,2165 L 7958,2193 7975,2230 C 8012,2309 8073,2375 8150,2418 8170,2430 8189,2446 8203,2465 8217,2484 8227,2506 8232,2529 L 8292,2802 8351,2627 8367,2578 C 8386,2571 8407,2569 8427,2571 8447,2574 8466,2581 8482,2592 8499,2604 8513,2619 8522,2636 8532,2654 8537,2674 8537,2694 L 8538,2694 8537,2707 8531,2782 C 8530,2792 8528,2802 8526,2812 8571,2729 8601,2639 8616,2546 8676,2160 8547,1872 8036,1811 L 8036,1811 Z"/>
        <path fill="rgb(0,0,0)" stroke="none" d="M 8328,2955 C 8326,2980 8325,3007 8324,3034 8370,3003 8412,2965 8448,2923 8413,2947 8371,2958 8328,2955 L 8328,2955 Z"/>
        <path fill="rgb(206,157,119)" stroke="none" d="M 8625,5205 L 8696,5513 8939,5513 C 8995,5512 9048,5489 9088,5449 9127,5410 9150,5356 9151,5300 L 9148,5109 C 9057,5103 8864,5103 8625,5205 L 8625,5205 Z"/>
        <path fill="rgb(206,157,119)" stroke="none" d="M 6471,4633 L 6469,4635 6467,4637 6343,4770 5479,4274 C 5443,4243 5346,4151 5376,4078 5392,4038 5378,3952 5366,3878 5354,3804 5283,3719 5286,3639 5286,3632 5286,3625 5284,3618 L 5269,3535 C 5269,3530 5266,3526 5263,3522 5259,3519 5255,3517 5250,3516 5229,3512 5191,3517 5172,3589 5143,3693 5207,3838 5194,3845 5180,3852 5081,3704 5062,3679 5062,3679 4909,3429 4878,3377 4846,3324 4790,3349 4792,3390 4793,3420 4887,3620 4937,3724 4933,3727 4928,3730 4923,3733 4856,3648 4691,3442 4662,3419 4625,3389 4604,3381 4573,3404 4541,3426 4573,3458 4573,3458 L 4825,3815 4820,3820 C 4764,3765 4668,3669 4644,3639 4608,3597 4544,3523 4523,3517 4476,3505 4443,3544 4469,3583 4489,3615 4674,3835 4744,3918 4687,3881 4605,3828 4590,3815 4566,3795 4496,3721 4460,3748 4424,3776 4465,3818 4490,3857 4516,3896 4720,4086 4720,4086 4748,4115 4773,4147 4795,4180 4866,4291 5009,4342 5062,4358 L 5879,5223 6005,5361 C 6084,5448 6195,5500 6313,5506 L 6533,5506 6533,5505 6562,5505 6985,5019 C 6905,4945 6666,4730 6471,4633 L 6471,4633 Z"/>
        <path fill="rgb(0,0,0)" stroke="none" d="M 6416,4692 L 6466,4637 6468,4635 6471,4633 C 6419,4607 6371,4589 6329,4584 6345,4618 6379,4656 6416,4692 L 6416,4692 Z"/>
        <path fill="rgb(155,118,89)" stroke="none" d="M 7955,3256 L 7735,3335 C 7713,3342 7690,3346 7666,3344 L 7666,3588 C 8016,3465 8141,3240 8186,3100 8123,3171 8044,3224 7955,3256 L 7955,3256 Z"/>
        <path fill="rgb(155,118,89)" stroke="none" d="M 8468,2728 C 8473,2583 8354,2668 8354,2668 L 8444,2715 C 8439,2845 8339,2890 8339,2890 8463,2887 8468,2728 8468,2728 L 8468,2728 Z"/>
        <path fill="rgb(155,118,89)" stroke="none" d="M 8625,5205 C 8625,5205 8805,5346 9151,5301 L 9148,5109 C 9148,5109 8911,5082 8625,5205 L 8625,5205 Z"/>
        <path fill="rgb(155,118,89)" stroke="none" d="M 6378,4735 L 6499,4895 6344,4768 6378,4735 6378,4735 Z"/>
        <path fill="rgb(155,118,89)" stroke="none" d="M 6494,4644 L 6468,4635 6465,4634 6466,4637 6822,5128 6650,5330 C 6591,5400 6509,5445 6419,5459 6328,5472 6236,5452 6160,5403 L 5879,5223 6005,5361 C 6085,5448 6195,5500 6313,5506 L 6533,5506 6533,5505 6562,5505 6985,5019 C 6908,4947 6684,4747 6494,4644 L 6494,4644 Z"/>
        <path fill="rgb(0,0,0)" stroke="none" d="M 7731,3002 C 7731,3002 7680,3061 7604,3070 7529,3079 7510,3056 7493,3037 7476,3018 7473,2966 7475,2973 7561,2976 7646,2986 7731,3002 L 7731,3002 Z"/>
        <path fill="rgb(124,94,71)" stroke="none" d="M 7731,3002 C 7731,3002 7682,3098 7597,3108 7512,3119 7483,3075 7477,3051 7472,3025 7469,2999 7468,2972 L 7481,2983 C 7482,3002 7489,3020 7502,3034 7514,3049 7531,3058 7550,3061 7619,3075 7700,3000 7731,3002 L 7731,3002 Z"/>
        <path fill="rgb(255,255,255)" stroke="none" d="M 7708,3001 C 7678,3019 7644,3029 7610,3031 7533,3033 7517,3023 7503,3015 7488,3006 7478,2972 7478,2972 7478,2972 7670,2979 7708,3001 L 7708,3001 Z"/>
        <path fill="rgb(124,94,71)" stroke="none" d="M 7736,3003 C 7736,3003 7660,2961 7589,2963 7519,2965 7492,2953 7479,2953 7467,2954 7455,2958 7445,2964 7471,2982 7500,2993 7532,2997 7578,3002 7675,2994 7736,3003 L 7736,3003 Z"/>
        <defs>
         <mask id="mask3">
          <g>
           <defs>
            <linearGradient id="gradient3" x1="7564" y1="2822" x2="7564" y2="2893" gradientUnits="userSpaceOnUse">
             <stop offset="0.5" style="stop-color:rgb(153,153,153)"/>
             <stop offset="0.5" style="stop-color:rgb(153,153,153)"/>
             <stop offset="1" style="stop-color:rgb(153,153,153)"/>
             <stop offset="1" style="stop-color:rgb(153,153,153)"/>
            </linearGradient>
           </defs>
           <path style="fill:url(#gradient3)" d="M 7453,2822 L 7676,2822 7676,2893 7453,2893 7453,2822 Z"/>
          </g>
         </mask>
        </defs>
        <g style="mask:url(#mask3)">
         <path fill="rgb(0,0,0)" fill-opacity="0.4" stroke="rgb(255,255,255)" stroke-opacity="0.4" d="M 7653,2886 C 7653,2886 7676,2893 7676,2879 7676,2866 7624,2846 7600,2834 7576,2823 7564,2834 7527,2840 7491,2845 7479,2820 7460,2822 7441,2825 7465,2870 7484,2876 7503,2882 7504,2892 7527,2893 7585,2895 7583,2880 7653,2886 L 7653,2886 Z"/>
        </g>
        <path fill="rgb(0,0,0)" stroke="none" d="M 7640,2878 C 7640,2878 7600,2845 7575,2853 7536,2865 7577,2881 7640,2878 L 7640,2878 Z"/>
        <path fill="rgb(0,0,0)" stroke="none" d="M 7517,2877 C 7517,2877 7493,2850 7478,2850 7463,2849 7480,2877 7517,2877 L 7517,2877 Z"/>
        <path fill="rgb(0,0,0)" stroke="none" d="M 7781,2535 C 7751,2531 7721,2543 7693,2573 7690,2575 7689,2579 7689,2583 7689,2587 7690,2591 7693,2594 7695,2596 7697,2597 7699,2597 7702,2598 7705,2598 7707,2598 7710,2597 7712,2595 7714,2593 L 7716,2592 C 7715,2594 7715,2596 7714,2597 7713,2605 7715,2613 7718,2620 7721,2627 7726,2633 7733,2637 7739,2641 7747,2644 7754,2644 7762,2644 7770,2642 7776,2638 7783,2634 7788,2629 7792,2622 7796,2615 7797,2608 7797,2600 7796,2592 7794,2585 7789,2578 7785,2572 7779,2567 7772,2564 L 7777,2564 C 7817,2570 7845,2622 7845,2622 7847,2626 7850,2628 7854,2630 7858,2631 7862,2630 7865,2629 7869,2627 7871,2624 7873,2620 7874,2616 7873,2612 7872,2609 7868,2602 7835,2543 7781,2535 Z"/>
        <path fill="rgb(0,0,0)" stroke="none" d="M 7410,2536 C 7395,2534 7379,2537 7365,2544 7365,2556 7363,2567 7361,2578 7364,2576 7367,2573 7371,2571 7366,2576 7363,2583 7363,2590 7362,2598 7364,2605 7367,2611 7371,2617 7377,2622 7383,2625 7390,2628 7397,2629 7404,2628 7411,2626 7418,2623 7423,2617 7428,2612 7431,2606 7432,2598 7433,2591 7432,2584 7429,2578 7425,2571 7420,2566 7414,2562 7444,2572 7464,2609 7464,2610 7465,2611 7466,2613 7467,2614 7469,2615 7470,2615 7472,2616 7473,2616 7475,2617 7477,2616 7478,2616 7480,2616 7481,2615 7483,2614 7484,2613 7485,2612 7486,2611 7487,2609 7488,2607 7488,2606 7488,2604 7488,2603 7488,2601 7487,2599 7487,2598 7486,2596 7457,2542 7410,2536 L 7410,2536 Z"/>
        <path fill="rgb(46,182,125)" stroke="none" d="M 8738,3636 C 8703,3626 8626,3588 8559,3553 L 8077,3970 7996,3898 C 7923,3975 7806,4064 7650,4058 7442,4050 7473,3875 7530,3754 L 7494,3704 7382,3811 C 7382,3811 7402,3719 7432,3629 7411,3638 7383,3651 7350,3666 7227,3723 7046,3811 7014,3848 6957,3898 6611,4268 6430,4468 6380,4523 6342,4566 6328,4584 6562,4609 7013,5045 7013,5045 L 6964,5510 8697,5512 8626,5204 C 8864,5103 9057,5102 9149,5108 L 9149,3854 C 9149,3854 9031,3714 8738,3636 L 8738,3636 Z M 8626,5206 L 8653,5324 C 8574,5322 8496,5314 8420,5298 8487,5263 8555,5233 8626,5206 L 8626,5206 Z"/>
        <path fill="rgb(35,137,94)" stroke="none" d="M 6754,4819 C 6845,4889 6931,4965 7014,5045 L 7052,4502 6754,4819 6754,4819 Z"/>
        <path fill="rgb(35,137,94)" stroke="none" d="M 8432,5301 L 8420,5301 8420,5298 C 8420,5250 8419,4708 8395,4557 L 8205,5512 8696,5513 8653,5324 C 8579,5322 8505,5314 8432,5301 Z"/>
        <path fill="rgb(177,177,177)" stroke="none" d="M 5763,3533 C 5763,3533 5321,3722 5021,3940 4720,4158 4622,4419 4622,4419 4622,4419 4176,3828 3917,3788 3917,3788 4444,3178 4963,2986 4963,2986 5643,3319 5763,3533 L 5763,3533 Z"/>
        <path fill="rgb(244,237,228)" stroke="none" d="M 5792,3421 C 5792,3421 5177,3747 4703,4375 4703,4375 4251,3827 3917,3706 3917,3706 4426,3073 5021,2835 L 5792,3421 5792,3421 Z"/>
        <path fill="rgb(177,177,177)" stroke="none" d="M 5147,3041 C 5149,3041 5151,3040 5153,3040 5154,3039 5156,3038 5157,3036 5159,3034 5160,3030 5160,3027 5160,3024 5158,3021 5155,3019 5106,2977 5052,2941 4995,2911 4992,2910 4989,2910 4986,2911 4983,2913 4981,2915 4980,2918 4978,2920 4978,2924 4979,2926 4980,2929 4982,2932 4984,2934 5039,2963 5091,2998 5139,3038 5142,3040 5144,3041 5147,3041 L 5147,3041 Z"/>
        <path fill="rgb(177,177,177)" stroke="none" d="M 5641,3442 C 5643,3442 5645,3441 5646,3441 5648,3440 5649,3439 5650,3438 5651,3436 5652,3435 5653,3433 5653,3432 5654,3430 5654,3429 5654,3427 5653,3425 5652,3424 5652,3422 5651,3421 5650,3420 5647,3418 5421,3211 5214,3060 5211,3058 5208,3058 5205,3058 5201,3059 5198,3060 5196,3063 5195,3064 5195,3066 5194,3067 5194,3069 5194,3071 5194,3072 5194,3074 5195,3076 5196,3077 5197,3078 5198,3080 5199,3081 5405,3231 5630,3436 5632,3438 5635,3441 5638,3442 5641,3442 L 5641,3442 Z"/>
        <path fill="rgb(177,177,177)" stroke="none" d="M 4326,3815 C 4328,3815 4329,3815 4331,3814 4333,3813 4334,3812 4336,3811 4337,3809 4337,3808 4338,3806 4338,3805 4338,3803 4338,3801 4338,3800 4337,3798 4337,3797 4336,3795 4335,3794 4333,3793 4239,3719 4159,3667 4095,3638 4094,3637 4092,3637 4091,3637 4089,3637 4087,3637 4086,3638 4084,3638 4083,3639 4081,3640 4080,3641 4079,3643 4079,3644 4078,3646 4077,3647 4077,3649 4077,3651 4078,3652 4078,3654 4079,3655 4080,3657 4081,3658 4082,3659 4083,3660 4085,3661 4146,3689 4225,3740 4318,3813 4320,3814 4323,3815 4326,3815 L 4326,3815 Z"/>
        <path fill="rgb(177,177,177)" stroke="none" d="M 4859,3343 C 4861,3343 4863,3343 4865,3342 4867,3341 4868,3340 4870,3338 4872,3336 4872,3332 4872,3329 4872,3326 4870,3323 4867,3321 4761,3242 4676,3188 4614,3161 4611,3160 4608,3159 4605,3161 4602,3162 4599,3164 4598,3167 4596,3170 4596,3174 4598,3177 4599,3180 4601,3183 4604,3184 4664,3210 4748,3263 4852,3341 4855,3342 4857,3343 4859,3343 L 4859,3343 Z"/>
        <path fill="rgb(177,177,177)" stroke="none" d="M 5268,3683 C 5270,3683 5272,3683 5274,3682 5275,3682 5277,3680 5278,3679 5279,3678 5280,3677 5280,3675 5281,3673 5281,3672 5281,3670 5281,3669 5281,3667 5280,3665 5279,3664 5278,3663 5277,3661 5275,3660 5125,3523 4959,3391 4956,3390 4953,3389 4950,3389 4947,3390 4944,3392 4942,3394 4940,3397 4939,3400 4939,3403 4940,3406 4941,3409 4943,3411 5109,3542 5259,3679 5260,3680 5262,3682 5265,3683 5268,3683 L 5268,3683 Z"/>
        <path fill="rgb(177,177,177)" stroke="none" d="M 4799,3158 C 4801,3158 4803,3157 4805,3156 4807,3155 4809,3153 4810,3152 4811,3149 4812,3145 4811,3142 4810,3139 4808,3136 4806,3134 4776,3116 4746,3100 4714,3085 4711,3084 4708,3084 4705,3085 4701,3086 4699,3089 4698,3092 4696,3095 4696,3098 4697,3102 4699,3105 4701,3107 4704,3109 4735,3122 4764,3138 4793,3156 4795,3157 4797,3158 4799,3158 L 4799,3158 Z"/>
        <path fill="rgb(177,177,177)" stroke="none" d="M 5102,3379 C 5104,3379 5107,3378 5109,3376 5111,3375 5113,3373 5114,3370 5115,3368 5115,3365 5114,3363 5113,3360 5112,3358 5110,3356 5010,3275 4922,3210 4849,3162 4846,3160 4843,3159 4840,3160 4836,3161 4833,3163 4832,3165 4831,3167 4830,3168 4830,3170 4829,3172 4830,3173 4830,3175 4830,3177 4831,3178 4832,3179 4833,3181 4834,3182 4836,3183 4908,3230 4995,3295 5094,3376 5096,3378 5099,3379 5102,3379 L 5102,3379 Z"/>
        <path fill="rgb(177,177,177)" stroke="none" d="M 5369,3608 C 5371,3608 5372,3607 5374,3607 5376,3606 5377,3605 5378,3603 5380,3601 5381,3598 5381,3595 5381,3592 5380,3589 5377,3586 5376,3586 5284,3501 5165,3402 5162,3400 5159,3399 5156,3399 5153,3400 5150,3401 5148,3404 5146,3406 5145,3409 5145,3413 5145,3416 5146,3419 5149,3421 5268,3520 5360,3604 5361,3605 5363,3607 5366,3608 5369,3608 L 5369,3608 Z"/>
        <path fill="rgb(177,177,177)" stroke="none" d="M 5358,3335 C 5360,3335 5362,3335 5363,3334 5365,3333 5366,3332 5368,3331 5370,3328 5371,3325 5370,3321 5370,3318 5369,3315 5366,3313 5217,3187 5011,3025 4882,2968 4880,2968 4879,2967 4877,2967 4875,2967 4874,2967 4872,2968 4870,2969 4869,2969 4868,2971 4867,2972 4866,2973 4865,2975 4864,2976 4864,2978 4864,2979 4864,2981 4864,2983 4865,2984 4865,2986 4866,2987 4867,2988 4869,2990 4870,2991 4872,2991 4999,3047 5202,3207 5350,3332 5352,3334 5355,3335 5358,3335 L 5358,3335 Z"/>
        <path fill="rgb(177,177,177)" stroke="none" d="M 5537,3491 C 5539,3491 5542,3490 5544,3489 5546,3487 5548,3485 5548,3483 5549,3480 5550,3478 5549,3475 5548,3473 5547,3471 5545,3469 5545,3468 5489,3418 5410,3350 5407,3348 5404,3347 5401,3347 5397,3347 5394,3349 5392,3351 5391,3352 5390,3354 5390,3355 5389,3357 5389,3359 5389,3360 5389,3362 5390,3364 5390,3365 5391,3366 5392,3368 5393,3369 5473,3437 5528,3487 5528,3488 5531,3490 5533,3491 5537,3491 L 5537,3491 Z"/>
       </g>
      </g>
     </g>
    </g>
   </g>
  </g>
 </g>
</svg>