<?xml version="1.0" encoding="UTF-8" standalone="no"?>
<!-- Created with Inkscape (http://www.inkscape.org/) -->

<svg
   width="156.35054mm"
   height="94.800209mm"
   viewBox="0 0 156.35054 94.800209"
   version="1.1"
   id="svg1"
   xml:space="preserve"
   inkscape:version="1.3 (0e150ed6c4, 2023-07-21)"
   sodipodi:docname="Illustration_1.svg"
   xmlns:inkscape="http://www.inkscape.org/namespaces/inkscape"
   xmlns:sodipodi="http://sodipodi.sourceforge.net/DTD/sodipodi-0.dtd"
   xmlns:xlink="http://www.w3.org/1999/xlink"
   xmlns="http://www.w3.org/2000/svg"
   xmlns:svg="http://www.w3.org/2000/svg"><sodipodi:namedview
     id="namedview1"
     pagecolor="#ffffff"
     bordercolor="#000000"
     borderopacity="0.25"
     inkscape:showpageshadow="2"
     inkscape:pageopacity="0.0"
     inkscape:pagecheckerboard="0"
     inkscape:deskcolor="#d1d1d1"
     inkscape:document-units="mm"
     inkscape:zoom="1.0242632"
     inkscape:cx="243.10158"
     inkscape:cy="127.40866"
     inkscape:window-width="1920"
     inkscape:window-height="1009"
     inkscape:window-x="-8"
     inkscape:window-y="-8"
     inkscape:window-maximized="1"
     inkscape:current-layer="g5" /><defs
     id="defs1"><style
       id="style1">.cls-1{opacity:0.55;}.cls-2{fill:#2a94f4;}.cls-3{fill:#d3d3d3;}.cls-4{fill:#f2f2f2;}.cls-5{fill:#5b275a;}.cls-6{fill:#fff;}.cls-7{font-size:13.63px;fill:#919191;font-family:MyriadPro-Regular, Myriad Pro;}.cls-8{fill:#431540;}.cls-9{fill:#d51b52;}.cls-10{fill:#2da974;}.cls-11{fill:#e5a42c;}.cls-12{fill:#ffbe55;}.cls-13{fill:#e4eef3;}.cls-14{fill:#fcd0b1;}.cls-15{fill:#0b4870;}.cls-16{fill:#cce9ff;}</style><inkscape:path-effect
       effect="fillet_chamfer"
       id="path-effect1"
       is_visible="true"
       lpeversion="1"
       nodesatellites_param="F,0,0,1,0,0,0,1 @ F,0,0,1,0,12.913443,0,1 @ F,0,0,1,0,13.427973,0,1 @ F,0,0,1,0,12.913443,0,1"
       radius="0"
       unit="px"
       method="auto"
       mode="F"
       chamfer_steps="1"
       flexible="false"
       use_knot_distance="true"
       apply_no_radius="true"
       apply_with_radius="true"
       only_selected="false"
       hide_knots="false" /><clipPath
       clipPathUnits="userSpaceOnUse"
       id="clipPath8"><g
         id="g9"
         transform="translate(-18.102637,27.153956)"><use
           x="0"
           y="0"
           xlink:href="#g6"
           id="use8"
           transform="translate(-117.96537,-190.25053)" /></g></clipPath><inkscape:path-effect
       effect="fillet_chamfer"
       id="path-effect1-0"
       is_visible="true"
       lpeversion="1"
       nodesatellites_param="F,0,0,1,0,0,0,1 @ F,0,0,1,0,12.913443,0,1 @ F,0,0,1,0,13.427973,0,1 @ F,0,0,1,0,12.913443,0,1"
       radius="0"
       unit="px"
       method="auto"
       mode="F"
       chamfer_steps="1"
       flexible="false"
       use_knot_distance="true"
       apply_no_radius="true"
       apply_with_radius="true"
       only_selected="false"
       hide_knots="false" /><inkscape:path-effect
       effect="fillet_chamfer"
       id="path-effect1-7"
       is_visible="true"
       lpeversion="1"
       nodesatellites_param="F,0,0,1,0,0,0,1 @ F,0,0,1,0,12.913443,0,1 @ F,0,0,1,0,13.427973,0,1 @ F,0,0,1,0,12.913443,0,1"
       radius="0"
       unit="px"
       method="auto"
       mode="F"
       chamfer_steps="1"
       flexible="false"
       use_knot_distance="true"
       apply_no_radius="true"
       apply_with_radius="true"
       only_selected="false"
       hide_knots="false" /><inkscape:path-effect
       effect="fillet_chamfer"
       id="path-effect1-0-4"
       is_visible="true"
       lpeversion="1"
       nodesatellites_param="F,0,0,1,0,0,0,1 @ F,0,0,1,0,12.913443,0,1 @ F,0,0,1,0,13.427973,0,1 @ F,0,0,1,0,12.913443,0,1"
       radius="0"
       unit="px"
       method="auto"
       mode="F"
       chamfer_steps="1"
       flexible="false"
       use_knot_distance="true"
       apply_no_radius="true"
       apply_with_radius="true"
       only_selected="false"
       hide_knots="false" /><inkscape:path-effect
       effect="fillet_chamfer"
       id="path-effect1-3"
       is_visible="true"
       lpeversion="1"
       nodesatellites_param="F,0,0,1,0,0,0,1 @ F,0,0,1,0,12.913443,0,1 @ F,0,0,1,0,13.427973,0,1 @ F,0,0,1,0,12.913443,0,1"
       radius="0"
       unit="px"
       method="auto"
       mode="F"
       chamfer_steps="1"
       flexible="false"
       use_knot_distance="true"
       apply_no_radius="true"
       apply_with_radius="true"
       only_selected="false"
       hide_knots="false" /><inkscape:path-effect
       effect="fillet_chamfer"
       id="path-effect1-0-5"
       is_visible="true"
       lpeversion="1"
       nodesatellites_param="F,0,0,1,0,0,0,1 @ F,0,0,1,0,12.913443,0,1 @ F,0,0,1,0,13.427973,0,1 @ F,0,0,1,0,12.913443,0,1"
       radius="0"
       unit="px"
       method="auto"
       mode="F"
       chamfer_steps="1"
       flexible="false"
       use_knot_distance="true"
       apply_no_radius="true"
       apply_with_radius="true"
       only_selected="false"
       hide_knots="false" /><inkscape:path-effect
       effect="fillet_chamfer"
       id="path-effect1-7-6"
       is_visible="true"
       lpeversion="1"
       nodesatellites_param="F,0,0,1,0,0,0,1 @ F,0,0,1,0,12.913443,0,1 @ F,0,0,1,0,13.427973,0,1 @ F,0,0,1,0,12.913443,0,1"
       radius="0"
       unit="px"
       method="auto"
       mode="F"
       chamfer_steps="1"
       flexible="false"
       use_knot_distance="true"
       apply_no_radius="true"
       apply_with_radius="true"
       only_selected="false"
       hide_knots="false" /><inkscape:path-effect
       effect="fillet_chamfer"
       id="path-effect1-0-4-3"
       is_visible="true"
       lpeversion="1"
       nodesatellites_param="F,0,0,1,0,0,0,1 @ F,0,0,1,0,12.913443,0,1 @ F,0,0,1,0,13.427973,0,1 @ F,0,0,1,0,12.913443,0,1"
       radius="0"
       unit="px"
       method="auto"
       mode="F"
       chamfer_steps="1"
       flexible="false"
       use_knot_distance="true"
       apply_no_radius="true"
       apply_with_radius="true"
       only_selected="false"
       hide_knots="false" /></defs><g
     inkscape:label="Layer 1"
     inkscape:groupmode="layer"
     id="layer1"
     transform="translate(-26.66975,-101.09989)"><g
       id="g5"
       transform="matrix(0.26458333,0,0,0.26458333,26.666025,101.08931)"><g
         class="cls-1"
         id="g1"><path
           class="cls-2"
           d="m 748.94,609.13 15.51,-10 A 153.75,153.75 0 0 0 779,573 c -6.75,-1.73 -20.72,5.4 -20.72,5.4 13.83,-8.44 18.8,-9.45 23.34,-12.2 4,-11.58 2.47,-24.33 2.58,-35.25 -14.33,13.66 -18.53,16.05 -18.53,16.05 9.08,-7.35 13.78,-15.26 18.52,-20.79 -0.73,-27.17 -9.39,-35.83 -9.39,-35.83 -6.72,4.64 -20.45,17 -25.86,21.55 a 234.51,234.51 0 0 0 -1.46,28.8 c -1.69,-7.28 -2,-18.08 -1.88,-25.92 -7.71,6.8 -6.39,5.78 -11.71,12.56 -2.16,13 -0.4,35.5 -0.4,35.5 -2.59,-8.56 -3.43,-22.32 -3.7,-29.95 a 119.46,119.46 0 0 0 -17.54,38.14 c 1.47,11.13 4.15,22.26 4.15,22.26 a 91.74,91.74 0 0 1 -5.59,-16.5 c -3.53,15.21 -5.13,31.45 -7,49.5 l 2.47,15.39 18.72,-6.89 c 14.24,-6.81 26,-18 35.16,-29.93 z"
           transform="translate(-220.18,-356.96)"
           id="path1" /></g><g
         class="cls-1"
         id="g2"><path
           class="cls-2"
           d="m 734.54,661.21 18.37,-2.1 a 154,154 0 0 0 24.69,-16.93 c -5.28,-4.54 -21,-4.38 -21,-4.38 16.13,-1.4 21,-0.1 26.32,-0.54 8.7,-8.61 13,-20.7 18,-30.43 -19,5.89 -23.8,6.18 -23.8,6.18 11.41,-2.55 19.13,-7.54 25.84,-10.39 11.43,-24.66 7.52,-36.27 7.52,-36.27 -8.08,1.18 -25.87,6.13 -32.75,7.81 a 237.38,237.38 0 0 0 -14.11,25.14 c 1.72,-7.27 6.29,-17.06 9.85,-24 -9.94,2.66 -8.3,2.34 -16.08,6 -7.73,10.72 -16.14,31.62 -16.14,31.62 1.49,-8.82 6.85,-21.52 10,-28.48 a 119.54,119.54 0 0 0 -32.67,26.37 c -3.63,10.63 -6.18,21.79 -6.18,21.79 a 91,91 0 0 1 2.33,-17.27 c -9.92,12 -18.58,25.89 -28.31,41.21 l -4.62,14.89 19.9,2.17 c 15.78,0.22 31.3,-4.61 44.8,-11.19 z"
           transform="translate(-220.18,-356.96)"
           id="path2" /></g><g
         class="cls-1"
         id="g3"><path
           class="cls-2"
           d="m 271.12,604.89 c 9.18,11.89 20.93,23.12 35.16,29.93 l 18.79,6.91 2.48,-15.39 c -1.9,-18.05 -3.51,-34.29 -7,-49.5 a 91,91 0 0 1 -5.6,16.5 c 0,0 2.68,-11.13 4.15,-22.26 a 119.43,119.43 0 0 0 -17.53,-38.14 c -0.28,7.63 -1.12,21.39 -3.71,29.95 0,0 1.76,-22.46 -0.4,-35.5 -5.31,-6.78 -4,-5.76 -11.71,-12.56 0.08,7.84 -0.18,18.64 -1.87,25.92 a 235.51,235.51 0 0 0 -1.47,-28.8 C 277,507.39 263.24,495 256.53,490.4 c 0,0 -8.67,8.66 -9.4,35.83 4.75,5.53 9.44,13.44 18.53,20.79 0,0 -4.21,-2.41 -18.57,-16.12 0.1,10.92 -1.39,23.67 2.57,35.25 4.54,2.75 9.52,3.76 23.34,12.2 0,0 -14,-7.13 -20.72,-5.4 a 154.44,154.44 0 0 0 14.59,26.14 l 15.52,10 z"
           transform="translate(-220.18,-356.96)"
           id="path3" /></g><g
         class="cls-1"
         id="g4"><path
           class="cls-2"
           d="m 284.8,662.41 c 13.51,6.58 29,11.41 44.8,11.19 l 19.9,-2.17 -4.62,-14.89 c -9.72,-15.32 -18.38,-29.16 -28.3,-41.21 a 91.7,91.7 0 0 1 2.32,17.27 c 0,0 -2.54,-11.16 -6.18,-21.79 a 119.64,119.64 0 0 0 -32.66,-26.37 c 3.15,7 8.51,19.66 10,28.48 0,0 -8.4,-20.9 -16.14,-31.62 -7.77,-3.71 -6.14,-3.39 -16.07,-6 3.55,7 8.12,16.78 9.84,24 a 235.39,235.39 0 0 0 -14.11,-25.14 c -6.87,-1.68 -24.67,-6.63 -32.74,-7.81 0,0 -3.91,11.61 7.51,36.27 6.71,2.85 14.43,7.84 25.84,10.39 0,0 -4.84,-0.29 -23.8,-6.18 5,9.73 9.28,21.82 18,30.43 5.28,0.44 10.19,-0.86 26.32,0.54 0,0 -15.68,-0.16 -21,4.38 a 154.15,154.15 0 0 0 24.7,16.93 l 18.36,2.1 z"
           transform="translate(-220.18,-356.96)"
           id="path4" /></g><ellipse
         class="cls-3"
         cx="300.32001"
         cy="319.01001"
         rx="267.56"
         ry="39.330002"
         id="ellipse4" /><ellipse
         class="cls-3"
         cx="139.27"
         cy="326.69"
         rx="64.480003"
         ry="7.6799998"
         id="ellipse5" /><path
         class="cls-4"
         d="m 729,389.3 v 258.29 a 32.69,32.69 0 0 1 -32.68,32.69 H 453.07 A 32.7,32.7 0 0 1 420.38,647.59 V 389.3 A 32.69,32.69 0 0 1 453.07,357 H 696.34 A 32.68,32.68 0 0 1 729,389.3 Z"
         transform="translate(-220.18,-356.96)"
         id="path5" /><path
         class="cls-5"
         d="M 453.07,680.28 A 32.7,32.7 0 0 1 420.38,647.59 V 389.3 A 32.69,32.69 0 0 1 453.07,357 h 42.26 v 323.28 z"
         transform="translate(-220.18,-356.96)"
         id="path6" /><rect
         class="cls-2"
         x="290.91"
         y="38.299999"
         width="32.48"
         height="32.48"
         rx="7.79"
         id="rect6"
         ry="7.79" /><rect
         class="cls-3"
         x="331.32001"
         y="50.48"
         width="116.79"
         height="6.5700002"
         id="rect7" /><rect
         class="cls-6"
         x="213.56"
         y="20.709999"
         width="49.310001"
         height="6.5700002"
         id="rect8" /><rect
         class="cls-3"
         x="290.91"
         y="101.53"
         width="157.2"
         height="2.6099999"
         id="rect9" /><rect
         class="cls-3"
         x="290.91"
         y="107.62"
         width="157.2"
         height="2.6099999"
         id="rect10" /><rect
         class="cls-3"
         x="290.91"
         y="113.71"
         width="157.2"
         height="2.6099999"
         id="rect11" /><rect
         class="cls-3"
         x="290.91"
         y="119.8"
         width="157.2"
         height="2.6099999"
         id="rect12" /><rect
         class="cls-3"
         x="290.91"
         y="125.6"
         width="157.2"
         height="2.6099999"
         id="rect13" /><rect
         class="cls-3"
         x="290.91"
         y="131.69"
         width="157.2"
         height="2.6099999"
         id="rect14" /><rect
         class="cls-3"
         x="290.91"
         y="137.78"
         width="157.2"
         height="2.6099999"
         id="rect15" /><rect
         class="cls-3"
         x="290.91"
         y="143.87"
         width="157.2"
         height="2.6099999"
         id="rect16" /><rect
         class="cls-6"
         x="290.91"
         y="275.91"
         width="157.2"
         height="28.639999"
         rx="4.0500002"
         id="rect17"
         ry="4.0500002" /><text
         class="cls-7"
         transform="translate(301.93,294.69)"
         id="text17">Hello!</text><rect
         class="cls-6"
         x="213.56"
         y="50.48"
         width="40.220001"
         height="3.29"
         id="rect18" /><rect
         class="cls-6"
         x="213.56"
         y="60.630001"
         width="25.83"
         height="1.64"
         id="rect19" /><rect
         class="cls-6"
         x="213.56"
         y="67.589996"
         width="25.83"
         height="1.64"
         id="rect20" /><rect
         class="cls-6"
         x="213.56"
         y="74.559998"
         width="25.83"
         height="1.64"
         id="rect21" /><circle
         class="cls-6"
         cx="264.79999"
         cy="52.220001"
         r="2.3199999"
         id="circle21" /><rect
         class="cls-6"
         x="213.56"
         y="101.14"
         width="40.220001"
         height="3.29"
         id="rect22" /><rect
         class="cls-6"
         x="213.56"
         y="111.29"
         width="25.83"
         height="1.64"
         id="rect23" /><rect
         class="cls-6"
         x="213.56"
         y="118.25"
         width="25.83"
         height="1.64"
         id="rect24" /><rect
         class="cls-6"
         x="213.56"
         y="125.22"
         width="25.83"
         height="1.64"
         id="rect25" /><circle
         class="cls-6"
         cx="264.79999"
         cy="102.88"
         r="2.3199999"
         id="circle25" /><rect
         class="cls-6"
         x="213.56"
         y="155.09"
         width="40.220001"
         height="3.29"
         id="rect26" /><rect
         class="cls-6"
         x="213.56"
         y="165.24001"
         width="25.83"
         height="1.64"
         id="rect27" /><rect
         class="cls-6"
         x="213.56"
         y="172.2"
         width="25.83"
         height="1.64"
         id="rect28" /><rect
         class="cls-6"
         x="213.56"
         y="179.16"
         width="25.83"
         height="1.64"
         id="rect29" /><circle
         class="cls-6"
         cx="264.79999"
         cy="156.83"
         r="2.3199999"
         id="circle29" /><rect
         class="cls-8"
         x="78.309998"
         y="186.73"
         width="125.44"
         height="139.72"
         rx="24.709999"
         id="rect30"
         ry="24.709999" /><path
         class="cls-12"
         d="m 392.25,421.26 c 6.9,1.73 19.62,7.92 22.28,18.49 4,15.88 -4,39.19 8.67,62 4,7.27 -70,17 -70,17 L 339,438.55 c 0,0 17.8,-17.41 21.44,-18.55 7.56,-2.47 18.02,-2.21 31.81,1.26 z"
         transform="translate(-220.18,-356.96)"
         id="path38" /><path
         class="cls-12"
         d="m 338.84,438.6 c -2.57,6.41 -9.06,44.55 -1.82,53.54 0.83,1 -3.76,2.66 -2.93,7.4 0.14,0.79 1.52,4.58 1.52,4.58 l 5.92,1.53 17.87,-10.16 -3.4,-4.17 h -1.61 a 3.65,3.65 0 0 1 -1.11,-3.18 c 0.43,-1.75 -4.1,-4.59 -10.93,-34.19 -2.04,-8.67 -2.94,-16.77 -3.51,-15.35 z"
         transform="translate(-220.18,-356.96)"
         id="path39" /><path
         class="cls-3"
         d="m 345.76,490.33 5.28,-1.16 2.14,-0.34 a 3.91,3.91 0 0 0 1.18,2.53 l -4.1,0.13 -4.8,1 -5.8,3.3 z"
         transform="translate(-220.18,-356.96)"
         id="path40" /><path
         class="cls-3"
         d="m 353.32,495.26 a 15.83,15.83 0 0 0 -7.57,2.09 c -2.65,1.63 -5.09,5.18 -2.66,7.1 a 39.79,39.79 0 0 0 6.19,3.71 c 0,0 9.31,0.25 4.04,-12.9 z"
         transform="translate(-220.18,-356.96)"
         id="path41" /><path
         class="cls-13"
         d="m 343.11,504.59 2.49,-0.54 c 0,0 8.57,-0.78 9.79,-0.11 1.22,0.67 5.15,3.33 5.15,3.33 l 0.81,0.74 c 0,0 -1.91,1.19 -4.49,-0.61 -2.58,-1.8 -2.8,-0.42 -2.8,-0.42 l 0.43,2.29 v 2.91 l 0.4,1.23 c 0,0 0.36,0.67 0.08,0.91 a 1.62,1.62 0 0 1 -1.63,0.37 l -2.61,-4.55 -0.71,5 a 1.83,1.83 0 0 1 -1.17,0.85 c -0.77,0.16 -0.77,0 -0.77,0 l -0.59,-1.26 a 1.51,1.51 0 0 1 -0.52,0.86 2.49,2.49 0 0 1 -1.55,0.44 l 0.24,-5.21 -1.07,2.65 a 2,2 0 0 1 -1.17,0.84 c -0.86,0.2 -1.1,0.27 -1.1,0.27 z"
         transform="translate(-220.18,-356.96)"
         id="path42" /><path
         class="cls-14"
         d="m 387.5,484.19 c 0,0 -6.22,15.76 -21.17,20 -2.59,0.73 -4.18,3.52 -2.93,4.42 1.6,1.15 3.79,1.4 7.54,1.39 7.82,0 18.46,-2.45 25.82,-9.57 10.89,-10.53 14.32,-15.32 13.22,-20.62 -1.1,-5.3 -22.48,4.38 -22.48,4.38 z"
         transform="translate(-220.18,-356.96)"
         id="path43" /><path
         class="cls-12"
         d="m 412.41,434.45 c 3.17,5.2 5,13.55 5,25.5 0,9.25 -8,24.4 -9.23,29.06 -0.2,0.78 -0.69,4.11 -0.69,4.11 l -8.85,8.68 -17.75,-12 5.4,-8.28 1.61,0.16 c 0,0 1,-4.56 0.74,-6.34 -0.26,-1.78 4.92,-25.64 7.49,-40.94 1.45,-8.83 13.14,-5.11 16.28,0.05 z"
         transform="translate(-220.18,-356.96)"
         id="path44" /><path
         class="cls-12"
         d="m 396.52,481.36 -5.17,-1.6 -2.1,-0.52 a 3.91,3.91 0 0 1 -1.38,2.42 l 4.07,0.47 4.69,1.44 5.51,3.78 z"
         transform="translate(-220.18,-356.96)"
         id="path45" /><path
         class="cls-14"
         d="m 367.47,504.11 -9,-2.48 c 0,0 -2.56,3.44 -2.07,4.29 0.49,0.85 0,5.94 0,5.94 l 4.39,3.72 3.56,-1.18 c 0,0 0.25,-1.55 -1,-1.71 -1.25,-0.16 0.82,-1 1.47,-1.4 0.65,-0.4 5.84,-3.07 2.65,-7.18 z"
         transform="translate(-220.18,-356.96)"
         id="path46" /><path
         class="cls-14"
         d="m 382.16,422.89 a 3,3 0 0 1 -1.83,3.8 l -9.93,3.48 a 3,3 0 0 1 -3.8,-1.83 l -6.25,-17.82 a 3,3 0 0 1 1.83,-3.8 l 9.93,-3.48 a 3,3 0 0 1 3.8,1.83 z"
         transform="translate(-220.18,-356.96)"
         id="path47" /><path
         class="cls-14"
         d="m 358.94,431.94 a 3.56,3.56 0 0 0 4.38,2.49 l 15.48,-4.26 a 3.56,3.56 0 0 0 2.49,-4.39 L 375,402.86 a 3.57,3.57 0 0 0 -4.39,-2.48 l -15.48,4.26 a 3.56,3.56 0 0 0 -2.49,4.38 z"
         transform="translate(-220.18,-356.96)"
         id="path48" /><path
         class="cls-15"
         d="m 353.9,413.75 c 0,0 -2.69,-1.64 -3.45,-2.9 a 5.33,5.33 0 0 1 1,-4.9 c 1.45,-1.48 3.39,0 3.39,0 0,0 -2.32,2.29 -2.31,2.9 0.01,0.61 1.37,4.9 1.37,4.9 z"
         transform="translate(-220.18,-356.96)"
         id="path49" /><path
         class="cls-15"
         d="m 379.4,412.74 c 0,0 -0.09,-9.46 -1.23,-11.91 -1.14,-2.45 -1.92,-4.17 -5.16,-3.59 -4.83,0.87 -4.62,1.89 -7.3,1.09 -2.68,-0.8 -7.76,-3.12 -9.28,-3.07 -2.52,0.07 -6,1.89 -4.93,6.37 a 5.09,5.09 0 0 1 -0.95,4.78 c 0.29,0.35 1.26,0.49 3,0.82 4.88,1 7.59,0.69 10.64,-1.08 3.05,-1.77 8.69,-5.32 10.07,-3.08 1.38,2.24 3.16,9.77 3.6,10.26 0.44,0.49 1.08,0 1.54,-0.59 z"
         transform="translate(-220.18,-356.96)"
         id="path50" /><path
         class="cls-14"
         d="m 376.42,421 a 1.18,1.18 0 0 0 1.46,0.83 l 3.34,-0.92 a 1.18,1.18 0 0 0 0.83,-1.46 l -1.68,-6.11 a 1.19,1.19 0 0 0 -1.46,-0.83 l -3.35,0.92 a 1.19,1.19 0 0 0 -0.83,1.46 z"
         transform="translate(-220.18,-356.96)"
         id="path51" /><path
         class="cls-14"
         d="m 356.47,426.45 a 1.2,1.2 0 0 0 1.47,0.84 l 3.34,-0.92 a 1.19,1.19 0 0 0 0.83,-1.47 l -1.69,-6.11 A 1.19,1.19 0 0 0 359,418 l -3.34,0.92 a 1.18,1.18 0 0 0 -0.83,1.46 z"
         transform="translate(-220.18,-356.96)"
         id="path52" /><path
         class="cls-15"
         d="m 378.47,415.16 3.31,12 c 0.75,2.72 1.31,9 -14.06,13.22 -9.1,2.51 -10.61,-4.27 -11.21,-6.46 -0.46,-1.68 0.05,-7.2 0.75,-8.43 0,0 1,3.73 1,3.73 a 7.55,7.55 0 0 1 5.22,-5.35 c 7,-1.92 9.69,1.72 12.75,0.81 2.36,-0.68 3.08,-5.03 2.24,-9.52 z"
         transform="translate(-220.18,-356.96)"
         id="path53" /><path
         class="cls-14"
         d="m 368,429 -4.77,1.32 a 1.19,1.19 0 0 1 -1.46,-0.83 l -0.19,-0.67 7.07,-2 0.18,0.67 A 1.18,1.18 0 0 1 368,429 Z"
         transform="translate(-220.18,-356.96)"
         id="path54" /><path
         class="cls-15"
         d="m 292.5,520.57 c 2.2,6.08 40.81,28.49 53.76,27.17 l 39,1.85 c 33.17,-4 48.86,-55.55 48.86,-55.55 -1.33,-12.93 -34,5.81 -45.64,11.62 -18.45,9.2 -30.11,9.67 -30.11,9.67 -12.34,1.26 -26.64,-8.25 -42.22,-8.58 -17.1,-0.37 -27.15,4.25 -23.65,13.82 z"
         transform="translate(-220.18,-356.96)"
         id="path55" /><path
         class="cls-3"
         d="m 377.34,514.38 c 0,0 0,0 0,0 v -1.68 l -67.14,-1.22 v 1.62 a 0.11,0.11 0 0 0 0,0.06 l 0.17,0.3 c 0.84,1.42 2.38,1.7 4.15,1.74 l 58.48,1.06 c 1.78,0 3.33,-0.19 4.21,-1.58 z"
         transform="translate(-220.18,-356.96)"
         id="path56" /><path
         class="cls-4"
         d="m 361.16,514.35 c 0,0 0,0 0,0 l 0.16,0.25 a 2.69,2.69 0 0 0 1,0.84 l 10.21,0.19 c 1.7,0 3.19,-0.14 4.05,-1.27 l 0.16,-0.24 v 0 -0.79 l -15.55,-0.28 z"
         transform="translate(-220.18,-356.96)"
         id="path57" /><rect
         class="cls-3"
         x="334.78"
         y="496.10999"
         width="1.14"
         height="33.549999"
         transform="matrix(0.02,-1,1,0.02,-403.72,481.93)"
         id="rect57" /><path
         class="cls-4"
         d="m 360.82,512.35 -8.1,-33.14 a 2.2,2.2 0 0 0 -2,-1.61 l -47.1,-0.85 a 1.17,1.17 0 0 0 -1.19,1.55 l 8.11,33.13 z"
         transform="translate(-220.18,-356.96)"
         id="path58" /><path
         class="cls-3"
         d="m 334.5,494.59 a 2.26,2.26 0 0 1 -2.29,3 4.23,4.23 0 0 1 -3.8,-3.11 2.27,2.27 0 0 1 2.3,-3 4.22,4.22 0 0 1 3.79,3.11 z"
         transform="translate(-220.18,-356.96)"
         id="path59" /><path
         class="cls-14"
         d="m 391.22,558.17 c -4.65,0.8 -8.19,-4.59 -8.19,-4.59 l -12,-9.44 2.53,-6.39 23.38,10.5 c 0,0 -1.08,9.13 -5.72,9.92 z"
         transform="translate(-220.18,-356.96)"
         id="path60" /><path
         class="cls-15"
         d="m 383,553.21 a 12.22,12.22 0 0 0 0.89,3 c 0.89,2.46 2,3.31 3.15,3.65 4.48,1.32 7.71,0.66 18.48,2.74 10.77,2.08 14,0.51 17.17,-4.46 3.17,-4.97 -0.12,-8.86 -5.38,-9.26 -7.61,-0.58 -11.84,0.29 -15.8,-0.31 -4.15,-0.63 -4.42,-1.56 -6.85,-3.05 -2.27,-1.4 -4.37,6.93 -2.21,8.86 1.9,1.73 -7.82,1.99 -9.45,-1.17 z"
         transform="translate(-220.18,-356.96)"
         id="path61" /><path
         class="cls-16"
         d="m 385.32,558 c 4.48,1.31 7.71,0.65 18.49,2.72 10.78,2.07 14,0.51 17.16,-4.45 1.46,-2.3 1.53,-4.35 0.68,-5.94 2.37,1.63 3.18,4.48 1.05,7.83 -3.16,5 -6.39,6.53 -17.17,4.46 -10.78,-2.07 -14,-1.42 -18.48,-2.74 a 4.13,4.13 0 0 1 -2.51,-2.21 4.34,4.34 0 0 0 0.78,0.33 z"
         transform="translate(-220.18,-356.96)"
         id="path62" /><path
         class="cls-6"
         d="m 383,553.36 a 0.86,0.86 0 0 1 0,-0.15 1.63,1.63 0 0 0 0.11,0.17 z"
         transform="translate(-220.18,-356.96)"
         id="path63" /><path
         class="cls-6"
         d="m 406.31,557.09 c 0.35,0.13 0.65,-0.52 0.76,-1.44 a 26,26 0 0 1 1.25,-5.55 c 0.31,-0.91 0.3,-1.71 -0.08,-1.81 -0.38,-0.1 -1,0.55 -1.28,1.43 a 26.16,26.16 0 0 0 -1.18,5.49 c -0.09,0.91 0.22,1.79 0.53,1.88 z"
         transform="translate(-220.18,-356.96)"
         id="path64" /><path
         class="cls-6"
         d="m 403,556.49 c 0.36,0.07 0.7,-0.57 0.8,-1.42 a 23.61,23.61 0 0 1 1.23,-5.23 c 0.3,-0.85 0.28,-1.59 -0.12,-1.64 -0.4,-0.05 -1,0.59 -1.31,1.44 a 22.91,22.91 0 0 0 -1.16,5.17 c -0.12,0.85 0.17,1.59 0.56,1.68 z"
         transform="translate(-220.18,-356.96)"
         id="path65" /><path
         class="cls-6"
         d="m 399.47,556.33 c 0.38,0 0.75,-0.62 0.89,-1.51 a 26.34,26.34 0 0 1 1.46,-5.39 c 0.34,-0.89 0.34,-1.63 -0.08,-1.65 -0.42,-0.02 -1.08,0.67 -1.41,1.55 a 25.08,25.08 0 0 0 -1.38,5.33 c -0.13,0.87 0.14,1.63 0.52,1.67 z"
         transform="translate(-220.18,-356.96)"
         id="path66" /><path
         class="cls-15"
         d="m 390.4,542.75 c 0,0 -82.49,-33.89 -87.21,-33.94 -15.93,-0.15 -12.28,16 -4.2,23.55 9.52,8.94 81.95,25.31 81.95,25.31 z"
         transform="translate(-220.18,-356.96)"
         id="path67" /><polygon
         class="cls-14"
         points="137.49,191.69 160.01,170.35 150.42,160.85 125.83,186.68 "
         id="polygon67" /><path
         class="cls-15"
         d="m 353,531.87 c 0,0 57.31,-52.51 61.17,-54.08 13.09,-5.3 21.19,9.14 20.73,14.12 -0.59,6.47 -58.82,59.06 -58.82,59.06 z"
         transform="translate(-220.18,-356.96)"
         id="path68" /><path
         class="cls-15"
         d="m 319.05,550.31 c -1.34,1.24 -1.57,4.88 -1.57,4.88 0,0 19.13,7.23 25.84,7.36 a 34.15,34.15 0 0 0 7.89,-1.5 c 0.52,-0.14 1.68,-1.44 2.17,-1.6 0.92,-0.26 1.13,0.63 1.91,0.38 a 21.54,21.54 0 0 0 3.54,-1.31 c 4.05,-8.58 2.68,-12.81 2.68,-12.81 0,0 -8.79,2.52 -7.28,0.55 3.22,-4.2 -6,-8.51 -8.05,-6.27 -8.18,9.01 -23.25,6.74 -27.13,10.32 z"
         transform="translate(-220.18,-356.96)"
         id="path69" /><path
         class="cls-16"
         d="m 318,552.1 c 5.87,2.33 18.23,7.15 20.69,7.32 10.06,0.72 17.1,-2.85 21.8,-5 a 38.22,38.22 0 0 1 -1.65,4.06 21.54,21.54 0 0 1 -3.54,1.31 c -0.78,0.25 -1,-0.64 -1.91,-0.38 -0.49,0.16 -1.65,1.46 -2.17,1.6 a 34.15,34.15 0 0 1 -7.89,1.5 c -6.71,-0.13 -25.84,-7.36 -25.84,-7.36 A 13,13 0 0 1 318,552.1 Z"
         transform="translate(-220.18,-356.96)"
         id="path70" /><path
         class="cls-6"
         d="m 331.5,546.53 c -0.17,0.33 0.57,0.72 1.65,1 a 37.11,37.11 0 0 1 6.46,1.95 c 1,0.43 2,0.53 2.14,0.17 0.14,-0.36 -0.58,-1.06 -1.61,-1.48 a 36.37,36.37 0 0 0 -6.39,-1.88 c -1.06,-0.29 -2.07,-0.09 -2.25,0.24 z"
         transform="translate(-220.18,-356.96)"
         id="path71" /><path
         class="cls-6"
         d="m 335.79,545 c -0.16,0.33 0.57,0.81 1.62,1.12 a 36.86,36.86 0 0 1 6.24,2.45 c 1,0.51 1.92,0.66 2.06,0.28 0.14,-0.38 -0.56,-1.15 -1.56,-1.64 a 36.71,36.71 0 0 0 -6.18,-2.37 c -1.04,-0.27 -1.97,-0.16 -2.18,0.16 z"
         transform="translate(-220.18,-356.96)"
         id="path72" /><path
         class="cls-6"
         d="m 339.93,543.68 c -0.16,0.36 0.55,0.91 1.57,1.29 a 38.38,38.38 0 0 1 6,2.93 c 1,0.58 1.84,0.79 2,0.39 0.16,-0.4 -0.54,-1.24 -1.49,-1.8 a 35.79,35.79 0 0 0 -6,-2.84 c -1.01,-0.37 -1.94,-0.32 -2.08,0.03 z"
         transform="translate(-220.18,-356.96)"
         id="path73" /><g
         id="g7"
         transform="matrix(0.74260283,0,0,0.74260283,296.24154,428.83383)"><rect
           style="fill:#36c5f0;fill-opacity:1;stroke-width:3.17614"
           id="rect2"
           width="90.084198"
           height="26.22847"
           x="-268.87921"
           y="-287.22293"
           ry="17.659824"
           rx="17.659824" /><rect
           style="fill:#e01e5a;fill-opacity:1;stroke-width:3.06468"
           id="rect2-3"
           width="83.872505"
           height="26.22847"
           x="-255.87909"
           y="242.67374"
           ry="17.659824"
           rx="17.659824"
           transform="rotate(90)" /><rect
           style="fill:#ecb22e;fill-opacity:1;stroke-width:3.17614"
           id="rect2-7"
           width="90.084198"
           height="26.22847"
           x="147.56166"
           y="171.80328"
           ry="17.659824"
           rx="17.659824"
           transform="scale(-1)" /><rect
           style="fill:#2eb67d;fill-opacity:1;stroke-width:3.06468"
           id="rect2-3-4"
           width="83.872505"
           height="26.22847"
           x="203.14713"
           y="-173.76714"
           ry="17.659824"
           rx="17.659824"
           transform="rotate(-90)" /><path
           style="fill:#2eb67d;fill-opacity:1;stroke-width:1.16227"
           id="rect1"
           width="26.353966"
           height="26.22847"
           x="276.96762"
           y="-181.34038"
           inkscape:path-effect="#path-effect1-3"
           sodipodi:type="rect"
           d="m 276.96762,-181.34038 h 13.44052 a 12.913443,12.913443 45 0 1 12.91345,12.91345 13.371619,13.371619 135.24198 0 1 -13.42798,13.31502 h -0.0126 a 12.913443,12.913443 45 0 1 -12.91344,-12.91344 z"
           transform="rotate(-90,10.551717,34.291792)" /><path
           style="fill:#36c5f0;fill-opacity:1;stroke-width:1.16227"
           id="rect1-5"
           width="26.353966"
           height="26.22847"
           x="276.96762"
           y="-181.34038"
           inkscape:path-effect="#path-effect1-0-5"
           sodipodi:type="rect"
           d="m 276.96762,-181.34038 h 13.44052 a 12.913443,12.913443 45 0 1 12.91345,12.91345 13.371619,13.371619 135.24198 0 1 -13.42798,13.31502 h -0.0126 a 12.913443,12.913443 45 0 1 -12.91344,-12.91344 z"
           transform="rotate(180,33.445313,-206.73887)" /><path
           style="fill:#e01e5a;fill-opacity:1;stroke-width:1.16227"
           id="rect1-4"
           width="26.353966"
           height="26.22847"
           x="276.96762"
           y="-181.34038"
           inkscape:path-effect="#path-effect1-7-6"
           sodipodi:type="rect"
           d="m 276.96762,-181.34038 h 13.44052 a 12.913443,12.913443 45 0 1 12.91345,12.91345 13.371619,13.371619 135.24198 0 1 -13.42798,13.31502 h -0.0126 a 12.913443,12.913443 45 0 1 -12.91344,-12.91344 z"
           transform="rotate(90,56.329818,-447.70375)" /><path
           style="fill:#ecb22e;fill-opacity:1;stroke-width:1.16227"
           id="rect1-5-3"
           width="26.353966"
           height="26.22847"
           x="276.96762"
           y="-181.34038"
           inkscape:path-effect="#path-effect1-0-4-3"
           sodipodi:type="rect"
           d="m 276.96762,-181.34038 h 13.44052 a 12.913443,12.913443 45 0 1 12.91345,12.91345 13.371619,13.371619 135.24198 0 1 -13.42798,13.31502 h -0.0126 a 12.913443,12.913443 45 0 1 -12.91344,-12.91344 z"
           transform="translate(-482.00463,-45.712331)" /></g></g></g></svg>
