<svg data-2cq="true" aria-hidden="true" viewBox="0 0 20 20" class="" style="--s: 18px;" xmlns="http://www.w3.org/2000/svg"><path fill="currentColor" fill-rule="evenodd" d="M2.5 10a7.5 7.5 0 1 1 15 0v.645c0 1.024-.83 1.855-1.855 1.855a1.145 1.145 0 0 1-1.145-1.145V6.75a.75.75 0 0 0-1.494-.098 4.5 4.5 0 1 0 .465 6.212A2.642 2.642 0 0 0 15.646 14 3.355 3.355 0 0 0 19 10.645V10a9 9 0 1 0-3.815 7.357.75.75 0 1 0-.865-1.225A7.5 7.5 0 0 1 2.5 10Zm7.5 3a3 3 0 1 0 0-6 3 3 0 0 0 0 6Z" clip-rule="evenodd"></path></svg>
