<svg data-2cq="true" aria-hidden="true" viewBox="0 0 20 20" class="" xmlns="http://www.w3.org/2000/svg"><path fill="currentColor" fill-rule="evenodd" d="M3.792 2.094A.5.5 0 0 1 4 2.5V6h1a.5.5 0 1 1 0 1H2a.5.5 0 1 1 0-1h1V3.194l-.842.28a.5.5 0 0 1-.316-.948l1.5-.5a.5.5 0 0 1 .45.068ZM7.75 3.5a.75.75 0 0 0 0 1.5h10a.75.75 0 0 0 0-1.5h-10ZM7 10.75a.75.75 0 0 1 .75-.75h10a.75.75 0 0 1 0 1.5h-10a.75.75 0 0 1-.75-.75Zm0 6.5a.75.75 0 0 1 .75-.75h10a.75.75 0 0 1 0 1.5h-10a.75.75 0 0 1-.75-.75Zm-4.293-3.36a.997.997 0 0 1 .793-.39c.49 0 .75.38.75.75 0 .064-.033.194-.173.409a5.146 5.146 0 0 1-.594.711c-.256.267-.552.548-.87.848l-.088.084a41.6 41.6 0 0 0-.879.845A.5.5 0 0 0 2 18h3a.5.5 0 0 0 0-1H3.242l.058-.055c.316-.298.629-.595.904-.882a6.1 6.1 0 0 0 .711-.859c.18-.277.335-.604.335-.954 0-.787-.582-1.75-1.75-1.75a1.998 1.998 0 0 0-1.81 1.147.5.5 0 1 0 .905.427.996.996 0 0 1 .112-.184Z" clip-rule="evenodd"></path></svg>
