<svg data-2cq="true" aria-hidden="true" viewBox="0 0 20 20" class="" xmlns="http://www.w3.org/2000/svg"><path fill="currentColor" fill-rule="evenodd" d="M11.721 3.84c-.91-.334-2.028-.36-3.035-.114-1.51.407-2.379 1.861-2.164 3.15C6.718 8.051 7.939 9.5 11.5 9.5a.76.76 0 0 1 .027.001h5.723a.75.75 0 0 1 0 1.5H2.75a.75.75 0 0 1 0-1.5h3.66c-.76-.649-1.216-1.468-1.368-2.377-.347-2.084 1.033-4.253 3.265-4.848l.007-.002.007-.002c1.252-.307 2.68-.292 3.915.16 1.252.457 2.337 1.381 2.738 2.874a.75.75 0 0 1-1.448.39c-.25-.925-.91-1.528-1.805-1.856Zm2.968 9.114a.75.75 0 1 0-1.378.59c.273.64.186 1.205-.13 1.674-.333.492-.958.925-1.82 1.137-.989.243-1.991.165-3.029-.124-.93-.26-1.613-.935-1.858-1.845a.75.75 0 0 0-1.448.39c.388 1.441 1.483 2.503 2.903 2.9 1.213.338 2.486.456 3.79.135 1.14-.28 2.12-.889 2.704-1.753.6-.888.743-1.992.266-3.104Z" clip-rule="evenodd"></path></svg>
